<?xml version="1.0" encoding="UTF-8" standalone="no"?>
<svg width="211px" height="372px" viewBox="0 0 211 372" version="1.1" xmlns="http://www.w3.org/2000/svg" xmlns:xlink="http://www.w3.org/1999/xlink">
    <!-- Generator: sketchtool 39.1 (31720) - http://www.bohemiancoding.com/sketch -->
    <title>F87F3097-6AEC-40EC-9A7A-1612E0A0A104</title>
    <desc>Created with sketchtool.</desc>
    <defs>
        <filter x="-50%" y="-50%" width="200%" height="200%" filterUnits="objectBoundingBox" id="filter-1">
            <feGaussianBlur stdDeviation="6.15981158" in="SourceGraphic"></feGaussianBlur>
        </filter>
        <radialGradient cx="50%" cy="55.8216442%" fx="50%" fy="55.8216442%" r="82.1662709%" id="radialGradient-2">
            <stop stop-color="#FFD61E" offset="0%"></stop>
            <stop stop-color="#FFAE05" offset="100%"></stop>
        </radialGradient>
        <radialGradient cx="50.7255423%" cy="96.736865%" fx="50.7255423%" fy="96.736865%" r="64.2893578%" id="radialGradient-3">
            <stop stop-color="#6A291C" offset="0%"></stop>
            <stop stop-color="#361109" offset="100%"></stop>
        </radialGradient>
        <path d="M182.779611,35.8072 C182.509974,33.066 179.527789,30.8 176.157327,30.8 L17.8372807,30.8 C14.4668185,30.8 11.4900263,33.066 11.2203894,35.8072 L0.0196694367,149.028 C-0.249967538,151.7692 2.28462002,154 5.6550822,154 L188.344918,154 C191.71538,154 194.249968,151.7692 193.980331,149.028 L182.779611,35.8072 Z" id="path-4"></path>
        <mask id="mask-5" maskContentUnits="userSpaceOnUse" maskUnits="objectBoundingBox" x="0" y="0" width="194" height="123.2" fill="white">
            <use xlink:href="#path-4"></use>
        </mask>
        <path d="M182.779611,5.8072 C182.509974,3.066 179.527789,0.8 176.157327,0.8 L17.8372807,0.8 C14.4668185,0.8 11.4900263,3.066 11.2203894,5.8072 L0.0196694367,119.028 C-0.249967538,121.7692 2.28462002,124 5.6550822,124 L188.344918,124 C191.71538,124 194.249968,121.7692 193.980331,119.028 L182.779611,5.8072 Z" id="path-6"></path>
        <linearGradient x1="40.8679156%" y1="0%" x2="82.8496439%" y2="125.68191%" id="linearGradient-8">
            <stop stop-color="#381710" offset="0%"></stop>
            <stop stop-color="#360F07" offset="100%"></stop>
        </linearGradient>
        <linearGradient x1="50%" y1="-53.5373028%" x2="50%" y2="88.6999663%" id="linearGradient-9">
            <stop stop-color="#5A5A5A" offset="0%"></stop>
            <stop stop-color="#303030" offset="100%"></stop>
        </linearGradient>
        <filter x="-50%" y="-50%" width="200%" height="200%" filterUnits="objectBoundingBox" id="filter-10">
            <feGaussianBlur stdDeviation="6.15981158" in="SourceGraphic"></feGaussianBlur>
        </filter>
        <path d="M182.779611,35.8072 C182.509974,33.066 179.527789,30.8 176.157327,30.8 L17.8372807,30.8 C14.4668185,30.8 11.4900263,33.066 11.2203894,35.8072 L0.0196694367,149.028 C-0.249967538,151.7692 2.28462002,154 5.6550822,154 L188.344918,154 C191.71538,154 194.249968,151.7692 193.980331,149.028 L182.779611,35.8072 Z" id="path-11"></path>
        <mask id="mask-12" maskContentUnits="userSpaceOnUse" maskUnits="objectBoundingBox" x="0" y="0" width="194" height="123.2" fill="white">
            <use xlink:href="#path-11"></use>
        </mask>
        <path d="M182.779611,5.8072 C182.509974,3.066 179.527789,0.8 176.157327,0.8 L17.8372807,0.8 C14.4668185,0.8 11.4900263,3.066 11.2203894,5.8072 L0.0196694367,119.028 C-0.249967538,121.7692 2.28462002,124 5.6550822,124 L188.344918,124 C191.71538,124 194.249968,121.7692 193.980331,119.028 L182.779611,5.8072 Z" id="path-13"></path>
    </defs>
    <g id="Desktop-UI---Main-menu" stroke="none" stroke-width="1" fill="none" fill-rule="evenodd">
        <g id="bags" transform="translate(-28.000000, -24.000000)">
            <g id="BAG-Copy" transform="translate(35.000000, 24.000000)">
                <g id="stroke_bag">
                    <ellipse id="SHADOW" fill="#000000" filter="url(#filter-1)" cx="98.5" cy="161.5" rx="93.5" ry="3.5"></ellipse>
                    <g id="Group-5">
                        <g id="Page-1">
                            <use id="base_bolsa" stroke="url(#radialGradient-3)" mask="url(#mask-5)" stroke-width="12" fill="url(#radialGradient-2)" xlink:href="#path-4"></use>
                            <g id="Group-2" transform="translate(0.000000, 30.000000)">
                                <mask id="mask-7" fill="white">
                                    <use xlink:href="#path-6"></use>
                                </mask>
                                <g id="Fill-1-Copy-2"></g>
                                <path d="M124.159895,17.32596 L128.08925,4.27116 C132.24507,-9.53604 123.639748,-21.20044 109.301384,-21.20044 C94.9630208,-21.20044 79.3359792,-9.53604 75.1801596,4.27116 L71.2508043,17.32596 C70.5197614,19.75476 67.9555877,21.72596 65.5173604,21.72596 C63.0791331,21.72596 61.7015796,19.75476 62.4326225,17.32596 L66.3619778,4.27116 C71.9533961,-14.30564 92.8278631,-30.00044 111.95009,-30.00044 C131.072318,-30.00044 142.498851,-14.30564 136.907432,4.27116 L132.978077,17.32596 C132.247034,19.75476 129.68286,21.72596 127.244633,21.72596" id="Fill-6" fill="#000000" opacity="0.144822761" mask="url(#mask-7)"></path>
                            </g>
                            <g transform="translate(49.000000, 56.000000)" id="Fill-1" fill="url(#linearGradient-8)">
                                <path d="M38.9731379,35.4351135 C40.4394952,32.4876358 41.8317612,29.6918975 43.2180401,26.893423 C43.2649395,26.798648 43.254462,26.6755151 43.2731719,26.5496459 C39.4077065,27.5473954 36.9851486,32.3416176 38.9731379,35.4351135 M50.1965834,24.4108651 C51.8912014,24.700414 53.3420918,25.0630963 54.8106942,25.1611051 C55.8761607,25.2319998 57.0758395,25.2033931 58.0243067,24.7862339 C62.5673199,22.7877499 64.3776899,18.8106823 65.3760501,14.2833724 C66.2718802,10.2212312 65.0430139,6.90733983 62.0047756,4.14941209 C61.1673205,3.38922203 60.5102288,3.35912289 59.929224,4.3618474 C58.4022467,6.99763727 56.7181062,9.56054243 55.413153,12.3023012 C53.5441587,16.2281256 51.9563119,20.2870331 50.1965834,24.4108651 M32.6197547,27.0546151 C32.4441311,26.6048692 32.239819,26.1640783 32.0976238,25.7043823 C31.434046,23.5596314 31.2424566,20.9984675 31.7403894,18.8460053 C32.0220358,17.6278604 31.6750295,17.6350743 30.7717155,16.9191623 C27.5493718,14.7967992 24.0601001,14.5152105 20.4004436,15.4161949 C15.6346579,16.5898129 11.956042,19.3273429 9.12685564,23.2631175 C5.38662186,28.4665388 2.45565363,33.9741854 3.15191138,40.668634 C3.56477651,44.6379903 5.2466718,47.9682993 8.77436112,50.1123039 C14.8044372,53.7769374 22.621683,53.2048048 28.5993714,48.6207792 C32.862235,45.3516634 35.7438091,40.9489789 38.3424895,36.3485356 C38.4886762,36.0900809 38.4846848,35.6234197 38.3509714,35.3510349 C37.3324044,33.2771787 37.6756687,31.3418781 38.8865734,29.4933924 C39.9310848,27.898635 41.3847193,26.7665588 43.038924,25.8329877 C43.5635496,25.5367225 43.4917035,25.795426 43.7671133,25.2581189 C46.1450169,20.6156362 48.7239895,15.6226601 51.5207454,11.549325 C53.4895258,8.69189594 56.8428389,5.41332756 59.7867793,2.78699032 C57.4637581,1.97232329 54.2900601,1.36437024 51.4628694,1.89894107 C42.8391022,3.52927014 37.0599882,8.91428138 33.0585643,16.4525011 C32.6347226,17.2507504 32.804858,17.8614398 33.3604173,18.582078 C35.9907798,21.9929832 36.7499028,25.8566193 35.9194327,30.0488585 C34.6643726,36.3851023 31.2190069,41.2698707 25.8649818,44.8063962 C24.398874,45.7750415 22.7279552,46.4354815 21.1508354,47.2372134 C21.0989466,47.1319907 21.0470578,47.0270169 20.995169,46.9217942 C21.0879701,46.8419444 21.167799,46.7230403 21.2753186,46.6882149 C30.2189003,43.7884978 35.4953417,32.4433577 34.8152992,25.3643365 C34.589533,23.0133692 33.6046439,20.7708582 32.1145874,18.6283461 C31.5917081,21.5942316 31.7259204,24.3479306 32.6197547,27.0546151 M65.3453659,69.0113352 C61.9982895,73.0120344 56.2398811,72.0834384 54.2648641,68.0991569 C52.6642945,65.0312826 52.5902033,60.8537198 53.9946931,57.4443072 C55.0751275,54.820955 56.2675718,52.9702305 57.5702798,50.4376732 C57.6603368,50.2625509 58.219638,49.4712667 58.4059887,49.1374398 C56.8385979,49.1374398 53.4957624,49.0901767 53.4957624,49.0901767 C53.4957624,49.0901767 53.0260192,49.9008636 52.8097328,50.3548384 C50.9140457,54.3324035 49.0245952,58.1878308 46.0606976,61.4646579 C41.7486892,66.2320147 36.8195037,70.1653017 30.3206822,71.5491163 C26.863841,72.2851773 23.154042,72.3806985 19.7972365,71.0635499 C19.2424256,70.8458907 16.6165534,69.5294883 16.2214003,68.5138286 C20.2046134,71.2155381 21.3790962,70.9332031 22.8539352,71.2207619 C26.3871128,71.8511028 29.7661208,70.5419142 32.6447013,68.2887069 C35.8907442,65.7479408 38.1865737,62.4706162 40.3781267,59.0403083 C42.3743483,55.9157182 44.060734,52.572474 46.1470126,49.0695301 C44.8283388,49.0695301 42.0223527,49.0891816 42.0223527,49.0891816 C42.0223527,49.0891816 41.8749187,49.2093295 41.8749187,48.7429171 C41.9078481,48.3894386 41.8749187,48.3232703 41.8749187,48.3232703 L46.7804051,48.3615783 C46.7804051,48.3615783 47.1940186,47.5429312 47.6126214,46.8307505 C50.6171819,41.7171291 52.3058128,39.0766129 55.6578785,34.8905925 C57.8307216,32.1769429 60.6793663,29.9667699 63.2665713,27.5834646 C63.4384529,27.4250088 64.8848529,26.5033778 65.0514957,26.2043764 C59.9369574,27.6959011 54.9748424,26.7695439 50.0648657,25.3732916 C48.2317944,29.5749835 46.0631922,33.6139907 44.2448394,37.7823496 C46.6853588,38.1820961 50.0760916,37.5025021 54.7535667,31.8433647 C54.4105518,33.1182253 52.2277301,35.4351135 49.6083441,36.9739014 C46.6357152,38.7201495 43.9018245,38.2176678 43.9018245,38.2176678 C43.9018245,38.2176678 42.9206774,40.0619247 42.4317253,40.7420162 C37.3092041,47.8670567 30.3054648,51.9334268 21.5796663,53.0916221 C17.062348,53.6911175 12.7253931,53.3712208 8.71349158,50.989408 C3.28038603,47.7638241 0.342183299,41.1591755 1.02147741,34.8821349 C2.06374358,25.24792 10.0838047,17.1298563 19.5689757,14.8226695 C24.1015114,13.7204437 28.3691149,14.399789 32.1829409,17.2119449 C34.9440233,10.6883899 39.4665803,5.87426741 45.6415958,2.68798651 C50.3557423,0.255428074 55.2904161,-0.0159617669 60.3146479,1.88774717 C60.7841417,2.06560577 61.5045976,1.88525964 61.9972916,1.6447152 C63.552708,0.885271406 66.2289721,-0.30799813 68.4117938,2.33500559 C67.2891998,1.62083489 64.9504623,-0.339092292 61.6892019,2.60266413 C66.089521,5.84864582 68.7864907,9.82073837 67.7384869,15.4589805 C66.7261565,20.90618 63.2508549,24.0593767 58.0043495,25.5232899 C62.29665,26.003135 66.7279028,25.1912042 70.875264,23.2613762 C63.555951,30.0657737 57.9267657,38.742786 54.1413787,48.0869546 C55.8624401,48.0869546 59.0256605,48.0750145 59.0256605,48.0750145 C59.0256605,48.0750145 59.5255891,47.3688039 59.7867793,46.9862213 C63.4312184,41.6427519 67.295187,36.4495294 71.67031,31.6722225 C74.3884843,28.704347 77.2957534,25.9148275 80.7620742,23.7753005 C81.3099001,23.4372448 81.9208407,23.2009291 82.8249031,22.7608846 C74.4508507,31.9677414 70.1291132,38.9228834 65.3296496,48.0640693 C66.1765844,48.1061086 66.7481095,48.0630743 67.3151442,48.0692931 C67.319884,48.6717736 67.320383,49.0695301 67.320383,49.0695301 C67.320383,49.0695301 65.5117593,49.0488836 64.5969699,49.0695301 C62.5827868,53.817733 59.568996,60.1079574 58.5267299,65.1969522 C58.2867442,66.3683315 58.2802581,67.9036368 58.5057748,69.0941701 C58.7624746,70.4496267 60.4338924,71.1747426 61.7550608,70.7419119 C62.9065928,70.3645531 64.3891653,69.6332184 65.3453659,69.0113352"></path>
                            </g>
                            <circle id="Oval" fill="#C0720D" cx="65.5" cy="47.5" r="5.5"></circle>
                            <circle id="Oval-Copy" fill="#C0720D" cx="127.5" cy="47.5" r="5.5"></circle>
                            <path d="M127.16215,51.72596 C124.723923,51.72596 122.753059,49.75476 122.753059,47.32596 L122.753059,34.27116 C122.753059,20.46396 110.636877,8.79956 96.2985136,8.79956 C81.96015,8.79956 69.8439682,20.46396 69.8439682,34.27116 L69.8439682,47.32596 C69.8439682,49.75476 67.8731045,51.72596 65.4348773,51.72596 C62.99665,51.72596 61.0257864,49.75476 61.0257864,47.32596 L61.0257864,34.27116 C61.0257864,15.69436 77.1762864,-0.00044 96.2985136,-0.00044 C115.420741,-0.00044 131.571241,15.69436 131.571241,34.27116 L131.571241,47.32596 C131.571241,49.75476 129.600377,51.72596 127.16215,51.72596" id="Fill-6" fill="url(#linearGradient-9)"></path>
                        </g>
                    </g>
                </g>
                <g id="stroke_bag" transform="translate(0.000000, 190.000000)">
                    <ellipse id="SHADOW" fill="#000000" filter="url(#filter-10)" cx="98.5" cy="161.5" rx="93.5" ry="3.5"></ellipse>
                    <g id="Group-5">
                        <g id="Page-1">
                            <use id="base_bolsa" stroke="url(#radialGradient-3)" mask="url(#mask-12)" stroke-width="12" fill="url(#radialGradient-2)" xlink:href="#path-11"></use>
                            <g id="Group-2" transform="translate(0.000000, 30.000000)">
                                <mask id="mask-14" fill="white">
                                    <use xlink:href="#path-13"></use>
                                </mask>
                                <g id="Fill-1-Copy-2"></g>
                                <path d="M124.159895,17.32596 L128.08925,4.27116 C132.24507,-9.53604 123.639748,-21.20044 109.301384,-21.20044 C94.9630208,-21.20044 79.3359792,-9.53604 75.1801596,4.27116 L71.2508043,17.32596 C70.5197614,19.75476 67.9555877,21.72596 65.5173604,21.72596 C63.0791331,21.72596 61.7015796,19.75476 62.4326225,17.32596 L66.3619778,4.27116 C71.9533961,-14.30564 92.8278631,-30.00044 111.95009,-30.00044 C131.072318,-30.00044 142.498851,-14.30564 136.907432,4.27116 L132.978077,17.32596 C132.247034,19.75476 129.68286,21.72596 127.244633,21.72596" id="Fill-6" fill="#000000" opacity="0.144822761" mask="url(#mask-14)"></path>
                            </g>
                            <circle id="Oval" fill="#C0720D" cx="65.5" cy="47.5" r="5.5"></circle>
                            <circle id="Oval-Copy" fill="#C0720D" cx="127.5" cy="47.5" r="5.5"></circle>
                            <path d="M127.16215,51.72596 C124.723923,51.72596 122.753059,49.75476 122.753059,47.32596 L122.753059,34.27116 C122.753059,20.46396 110.636877,8.79956 96.2985136,8.79956 C81.96015,8.79956 69.8439682,20.46396 69.8439682,34.27116 L69.8439682,47.32596 C69.8439682,49.75476 67.8731045,51.72596 65.4348773,51.72596 C62.99665,51.72596 61.0257864,49.75476 61.0257864,47.32596 L61.0257864,34.27116 C61.0257864,15.69436 77.1762864,-0.00044 96.2985136,-0.00044 C115.420741,-0.00044 131.571241,15.69436 131.571241,34.27116 L131.571241,47.32596 C131.571241,49.75476 129.600377,51.72596 127.16215,51.72596" id="Fill-6" fill="url(#linearGradient-9)"></path>
                        </g>
                    </g>
                </g>
            </g>
        </g>
    </g>
</svg>