<?xml version="1.0" encoding="UTF-8" standalone="no"?>
<svg width="176px" height="49px" viewBox="0 0 176 49" version="1.1" xmlns="http://www.w3.org/2000/svg" xmlns:xlink="http://www.w3.org/1999/xlink">
    <!-- Generator: sketchtool 39.1 (31720) - http://www.bohemiancoding.com/sketch -->
    <title>90E1F1C8-3236-44A2-A682-50B4FF8D35D1</title>
    <desc>Created with sketchtool.</desc>
    <defs></defs>
    <g id="Desktop-UI---Main-menu" stroke="none" stroke-width="1" fill="none" fill-rule="evenodd">
        <g id="Desktop" transform="translate(-132.000000, -128.000000)" fill="#FFFFFF">
            <g id="Header-Desktop---Regular-Copy-3" transform="translate(89.000000, 90.000000)">
                <g id="Logo" transform="translate(43.000000, 38.000000)">
                    <g id="logo">
                        <path d="M16.4505136,6.19576632 C16.8177235,6.63573474 17.2294765,6.90188211 17.7259704,6.97976632 C17.9258716,7.01122947 18.2914519,6.90033474 18.3484889,6.76519789 C18.4435506,6.54134526 18.2105136,6.35050316 17.9584642,6.25250316 C17.4804395,6.06733474 16.9986123,6.09415579 16.4505136,6.19576632 L16.4505136,6.19576632 Z M16.617279,3.19232421 C17.8085383,3.89792421 19.0497728,4.43950316 20.4979704,4.38534526 C21.4257728,4.35078737 22.3101185,4.17232421 23.061921,3.61166105 C23.636637,3.18304 23.745279,2.65693474 23.3661185,2.06429263 C22.9918469,1.47990316 22.4296247,1.11214526 21.7473531,0.923882105 C20.0824148,0.464829474 17.8840444,1.17352421 16.617279,3.19232421 L16.617279,3.19232421 Z M21.3296247,0.515892632 C21.6691309,0.606671579 22.0146123,0.680945263 22.3465136,0.79184 C22.9396988,0.989387368 23.4519457,1.30866105 23.8436,1.78473474 C24.5209827,2.60793474 24.438958,3.49354526 23.6203407,4.18728211 C22.9994519,4.71287158 22.2644889,4.95374526 21.4393531,4.96612421 C19.8271062,4.98985053 18.3588099,4.52925053 16.9779704,3.77465053 C16.8041432,3.67974526 16.6324889,3.58226105 16.4439951,3.47755579 C15.9523901,4.14395579 15.8991556,4.84542947 16.1588099,5.57939789 C16.1854272,5.65367158 16.322316,5.72227158 16.4184642,5.74032421 C16.8247852,5.81408211 17.2392543,5.85018737 17.642316,5.93632421 C17.8443901,5.97965053 18.0410321,6.08177684 18.2164889,6.19164 C18.472884,6.35153474 18.638563,6.60272421 18.5288346,6.88537684 C18.4147605,7.17886105 18.0969827,7.21496632 17.8036494,7.19124 C17.1811309,7.14172421 16.6308593,6.91219789 16.1751062,6.50730316 C15.9866123,6.34018737 15.8095259,6.31388211 15.5645383,6.37165053 C13.7491309,6.79924 12.196637,7.69258737 10.7864642,8.82113474 C9.17693333,10.1090611 7.84769877,11.6094926 7.10784691,13.5132716 C6.7770321,14.3658716 6.55540247,15.2458084 6.82374815,16.15824 C7.22518025,17.5199242 8.29421728,18.2095347 9.63377284,18.5881242 C11.1878963,19.0270611 12.7126864,18.7980505 14.2108593,18.3219768 C16.0517975,17.7370716 17.6569827,16.8220611 18.8036988,15.2870716 C19.4137235,14.4710926 19.7966864,13.5586611 19.873279,12.5678295 C19.9064148,12.14024 19.8167852,11.6461137 19.6076494,11.2695874 C18.9851309,10.1461979 17.9807358,9.49836632 16.6129333,9.45555579 C14.3667605,9.38592421 12.5616741,10.2999032 11.0890321,11.8250926 C10.3649333,12.5750505 9.76631605,13.4343558 9.13564938,14.2776716 C9.16715556,14.1863768 9.18562469,14.0883768 9.23288395,14.0048189 C10.4893284,11.7915663 12.2346617,10.1028716 14.836637,9.35549263 C15.8806864,9.05581895 16.9518963,9.03364 17.9997481,9.30133474 C20.1394519,9.84858737 21.3127852,11.9937558 20.6337728,14.0615558 C20.0976247,15.6945453 18.9156,16.8359874 17.4581679,17.7561558 C15.5276,18.9754821 13.3792049,19.2952716 11.104242,19.2029453 C8.59243951,19.1008189 6.72922963,18.0145663 5.5233037,15.9617242 C4.38310617,14.0197768 4.71283457,11.7198716 6.26913086,9.97856632 C7.54784691,8.54673474 9.20626667,7.64771368 10.9999457,6.94366105 C12.4514025,6.37422947 13.9506617,5.96366105 15.5716,5.78158737 C15.1397481,4.86760842 15.0397975,3.95724 15.5591062,3.04068211 C13.9153531,2.12412421 12.2802914,1.28390316 10.3508099,1.22097684 C9.71525432,1.20034526 9.10088395,1.33754526 8.57125432,1.71046105 C8.0253284,2.09472421 7.77110617,2.65693474 7.91397037,3.17014526 C8.05955062,3.69573474 8.54572346,4.06504 9.2573284,4.09444 C9.77500741,4.11558737 10.2964889,4.04337684 10.8163407,4.01397684 C10.8782667,4.01036632 10.9407358,4.01346105 11.0042914,4.04801895 C10.2541185,4.13828211 9.50992099,4.36987158 8.74779753,4.11146105 C7.71026667,3.75917684 7.40443951,2.80290316 8.07041481,1.96784 C8.56636543,1.34579789 9.2687358,1.10853474 10.0553037,1.06056632 C11.1786617,0.992482105 12.2536741,1.21427158 13.2792543,1.62948211 C14.0191062,1.92915579 14.7361432,2.28144 15.4607852,2.61464 C15.6079951,2.68220842 15.7177235,2.73017684 15.8578716,2.57389263 C16.9231062,1.38293474 18.2963407,0.745418947 19.9194519,0.565408421 C19.9634519,0.560250526 20.0041926,0.532913684 20.046563,0.515892632 L21.3296247,0.515892632 Z" id="Fill-1"></path>
                        <path d="M85.1507556,41.1897611 C85.0747062,41.1371505 85.022558,41.09434 84.9644346,41.0613295 C84.4250272,40.7528874 84.1952494,40.3000242 84.2039407,39.7048032 C84.2142617,38.9997189 84.4109037,38.3467295 84.758558,37.7350032 C85.3387062,36.7121926 86.2686815,36.4625505 87.1367309,37.0232137 C87.3659654,36.2861505 87.5006815,35.5645611 87.1513975,34.8429716 C86.9509531,34.4282768 86.6277432,34.3013926 86.1567802,34.4055821 C85.3153481,34.5917821 84.7156444,35.1266558 84.1593975,35.6996979 C82.7122864,37.1887821 81.6356444,38.9151295 80.7610765,40.7472137 C80.3183605,41.6735716 79.970163,42.6499611 79.6800889,43.6304768 C79.452484,44.4020979 80.0766321,44.9013821 80.8800395,44.6739189 C81.049521,44.6259505 81.2298667,44.5805611 81.3743605,44.4892663 C81.9268049,44.14214 82.4966321,43.8110032 83.0034469,43.4102347 C83.8150025,42.7685926 84.528237,42.0294663 85.1507556,41.1897611 M39.9524346,34.0759926 C39.9165827,34.0759926 39.8807309,34.0739295 39.8454222,34.0759926 C38.972484,34.1229295 38.3037926,34.5752768 37.6943111,35.1018979 C35.6871506,36.8359821 34.2519901,38.9656768 33.0857185,41.2645505 C32.7652247,41.8974242 32.5093728,42.5782663 32.3572741,43.2637505 C32.1617185,44.1411084 32.8266074,44.7193084 33.7201877,44.4634768 C34.3334716,44.2870768 34.9424099,44.0224768 35.4774716,43.6877295 C36.7029531,42.9207505 37.6383605,41.8623505 38.467842,40.7265821 C39.6797432,39.0678032 40.6819654,37.3141189 41.0410272,35.2891295 C41.177916,34.5159611 40.768879,34.0620663 39.9524346,34.0759926 M52.8031506,44.6476137 C52.8395457,44.6450347 52.9232,44.6455505 53.0046815,44.6326558 C53.1681877,44.6058347 53.3316938,44.5790137 53.492484,44.5398137 C54.7277432,44.2385926 55.664237,43.5041084 56.4958914,42.6344874 C57.9104099,41.1567505 58.9061136,39.4329821 59.6850765,37.5941926 C60.0245827,36.7926558 60.3092247,35.9673926 60.5650765,35.1380032 C60.744879,34.5556768 60.4379654,34.1719295 59.8159901,34.0739295 C59.3309037,33.9975926 58.8534222,34.0522663 58.4394963,34.2874663 C57.9440889,34.5685716 57.4405333,34.8651505 57.0238914,35.2385821 C55.1270025,36.9401716 53.7483358,39.0002347 52.617916,41.2114242 C52.2740642,41.8840137 52.0100642,42.6040558 51.8074469,43.3271926 C51.6048296,44.0492979 52.0915457,44.6574137 52.8031506,44.6476137 M77.4681383,42.6509926 C76.8233481,43.2095926 76.1557432,43.8347295 75.4349037,44.39694 C74.8911506,44.8204032 74.2632,45.1257505 73.5228049,45.1242032 C72.3016691,45.12214 71.537916,44.4578032 71.4309037,43.3060453 C71.4205827,43.1977295 71.4010272,43.0894137 71.3874469,42.9908979 C70.763842,43.4159084 70.1793481,43.8584558 69.5503111,44.2334347 C68.6464099,44.7714032 67.6724346,45.1345189 66.5756938,45.1267821 C64.9243358,45.1154347 63.7472,44.1065505 63.5836938,42.54474 C63.5777185,42.4916137 63.5701136,42.4390032 63.5521877,42.3018032 C63.3973728,42.4627295 63.2930765,42.57414 63.1844346,42.6824558 C62.2180642,43.6459505 61.184879,44.5305295 59.7817679,44.8632137 C59.3439407,44.9674032 58.8577679,45.0024768 58.4117926,44.9431611 C57.4073975,44.8095716 56.8772247,44.1689611 56.6653728,43.2224874 C56.3671506,43.4545926 56.0966321,43.6836032 55.8071012,43.8878558 C54.7462123,44.6367821 53.5902617,45.1138874 52.2338667,45.1334874 C50.9421136,45.1520558 49.5509531,44.4196347 49.4564346,42.7556979 C49.1750519,43.0079189 48.9349531,43.25034 48.6660642,43.4587189 C48.1706568,43.8419505 47.6877432,44.2504558 47.1467062,44.5671505 C45.9119901,45.28874 43.8325827,45.2356137 43.2790519,43.2137189 C42.9178173,43.4829611 42.572879,43.75014 42.2165333,44.0023611 C41.4125827,44.5728242 40.5347556,44.9560558 39.5080889,44.9968032 C38.302163,45.0447716 37.4308543,44.3897189 37.2352988,43.2544663 C37.2244346,43.1920558 37.2184593,43.1296453 37.2065086,43.0404137 C36.7817185,43.3607189 36.3982123,43.6779295 35.9853728,43.95594 C34.9054716,44.6826874 33.7315951,45.1463821 32.3708543,45.0612768 C31.0090272,44.9766874 30.1746568,44.1658663 30.0937185,42.8743295 C30.0366815,41.9588032 30.260484,41.1036242 30.6716938,40.2933189 C32.0324346,37.6106979 34.0548049,35.5227821 36.8832988,34.1874032 C37.8219654,33.74434 38.8263605,33.5498874 39.8829037,33.6174558 C40.6662123,33.6674874 41.3131753,33.9217716 41.6955951,34.6191189 C41.7379654,34.6964874 41.7988049,34.7650874 41.889521,34.89094 C42.140484,34.5206032 42.3713481,34.1874032 42.5929778,33.8490453 C42.6940148,33.6943084 42.7858173,33.6401505 43.0123358,33.6612979 C43.7744593,33.7319611 44.542558,33.7438242 45.3095704,33.7783821 C44.9803852,34.3364663 44.6186074,34.9523189 44.2546568,35.5666242 C42.7081383,38.1775505 41.1599901,40.7869295 39.6134716,43.3978558 C39.3190519,43.8950768 39.4130272,44.2710874 39.8894222,44.4098347 C40.0594469,44.4593505 40.2723852,44.4490347 40.4462123,44.4020979 C41.8601877,44.0193821 42.901521,43.1662663 43.5756444,41.9577716 C46.2161877,37.22334 48.8252247,32.4729189 51.4445827,27.7276558 C51.680879,27.2990347 51.8997926,26.8616453 52.1420642,26.4361189 C52.1871506,26.3566874 52.3224099,26.2488874 52.3854222,26.2648768 C53.2246815,26.4742874 54.0514469,26.3866032 54.9347062,26.16894 C54.4919901,26.9916242 54.080237,27.7596347 53.6657679,28.5266137 C51.4179654,32.6812979 49.1696198,36.8359821 46.9229037,40.9911821 C46.5274469,41.7220558 46.136879,42.4555084 45.7506568,43.1910242 C45.6718914,43.3400874 45.595842,43.4994663 45.5670519,43.66194 C45.4676444,44.2318874 45.9603358,44.6249189 46.5144099,44.3855926 C47.7980148,43.8316347 48.833916,42.9888347 49.5591012,41.8324347 C49.6949037,41.6163189 49.7432494,41.3486242 49.8154963,41.1005295 C50.1571753,39.9265926 50.8269531,38.9208032 51.605916,37.9763926 C52.8944099,36.4140663 54.4094222,35.0972558 56.3073975,34.2229926 C57.312879,33.7598137 58.3639901,33.4807716 59.5009284,33.58754 C60.268484,33.6597505 60.7986568,34.0347295 61.1403358,34.6758558 C61.1816198,34.7532242 61.2321383,34.8259505 61.3049284,34.9435505 C61.5613235,34.5634137 61.7889284,34.2090663 62.0393481,33.8696768 C62.0963852,33.7923084 62.248484,33.7066874 62.3299654,33.7262874 C63.1230519,33.9197084 63.9155951,33.9728347 64.7716938,33.7412453 C64.7016198,33.8779295 64.6619654,33.9645821 64.6136198,34.0471084 C62.7965827,37.1573189 60.9795457,40.2675295 59.158163,43.3761926 C59.0022617,43.6418242 58.8376691,43.9100347 59.093521,44.18134 C59.3352494,44.4366558 59.6573728,44.4928768 60.0066568,44.3876558 C60.9388049,44.1065505 61.666163,43.5283505 62.3620148,42.9114663 C63.0214716,42.3275926 63.4886321,41.6503611 63.780879,40.8106558 C64.3746074,39.1033926 65.4849284,37.6782663 66.7837432,36.3867295 C67.7854222,35.39074 68.9060642,34.5463926 70.2760395,34.0491716 C70.9789531,33.7943716 71.7057679,33.6334453 72.4684346,33.7371189 C73.1371259,33.8284137 73.4467556,34.1466558 73.5043358,34.7852032 C73.5472494,35.2679821 73.4625086,35.7244558 73.2316444,36.1608137 C72.9116938,36.7658347 72.4744099,37.2790453 71.9235951,37.7019926 C71.7231506,37.8562137 71.4971753,38.0104347 71.2114469,37.8696242 C70.9099654,37.7205611 70.8741136,37.4549295 70.8942123,37.1733084 C70.9653728,36.1891821 71.4672988,35.4216874 72.2582123,34.8192453 C72.482558,34.6485189 72.7693728,34.5520663 73.0333728,34.4179611 C72.912237,34.1079716 72.6341136,33.9769611 72.1680395,34.0610347 C71.5965827,34.1631611 71.1386568,34.4752137 70.7366815,34.8434874 C68.4573728,36.9288242 66.785916,39.3803716 65.8581136,42.2672453 C65.6810272,42.8181084 65.6821136,43.3792874 65.8890765,43.9291189 C66.1041877,44.5006137 66.5262617,44.7471611 67.1531259,44.6666979 C68.6426074,44.4743084 69.8175704,43.7135189 70.8925827,42.7809716 C71.4591506,42.28994 71.8703605,41.6978137 72.236484,41.0530768 C73.592879,38.6654874 74.9894716,36.2985295 76.3719407,33.9243505 C76.3942123,33.8856663 76.4273481,33.8531716 76.4621136,33.8093295 C77.2676938,34.1327295 78.0917432,33.9779926 78.9538173,33.8964979 C78.903842,34.0063611 78.870163,34.0955926 78.8239901,34.1781189 C77.0781136,37.3249505 75.3300642,40.4707505 73.5874469,43.6191295 C73.5075951,43.7640663 73.4386074,43.9327295 73.4326321,44.0926242 C73.4195951,44.4737926 73.7884346,44.7554137 74.1485827,44.5965505 C74.6374716,44.3809505 75.1269037,44.1287295 75.5408296,43.8053295 C76.0780642,43.3849611 76.5832494,42.9109505 77.0227062,42.3987716 C77.3366815,42.0330768 77.5626568,41.5827926 77.7538667,41.1412768 C78.3796444,39.6986137 79.2781136,38.4199716 80.3074963,37.2192137 C81.1733728,36.2087821 82.1386568,35.2958347 83.3206815,34.6118979 C84.1327802,34.1420137 84.9959407,33.8196453 85.9655704,33.8222242 C87.1323852,33.8258347 87.7282864,34.3601926 87.7587062,35.4717189 C87.7858667,36.4661611 87.5272988,37.4162453 87.1486815,38.3333189 C86.8634963,39.0239611 86.5256198,39.6944874 86.2116444,40.3742979 C86.1747062,40.4537295 86.1410272,40.5347084 86.0975704,40.6342558 C87.439842,40.4728137 88.4067556,39.6454874 89.4524346,38.9708347 C89.4801383,39.0084874 89.507842,39.0456242 89.5360889,39.0832768 C89.4290765,39.2086137 89.3361877,39.3473611 89.2139654,39.4572242 C88.3002864,40.2773295 87.2676444,40.8859611 86.0041383,41.0964032 C85.8531259,41.1216768 85.6858173,41.2356663 85.5896691,41.3548137 C84.6531753,42.51534 83.648237,43.6170663 82.3342123,44.4010663 C81.8024099,44.7182768 81.1967309,44.9658558 80.5894222,45.1200768 C79.5111506,45.3939611 78.5697679,44.99474 78.0303605,44.0606453 C77.7696198,43.6082979 77.638163,43.0888979 77.4681383,42.6509926" id="Fill-4"></path>
                        <path d="M120.204741,33.7566674 L120.204741,33.0541621 C121.14884,33.0541621 122.073383,33.0242463 122.994667,33.0665411 C123.478667,33.08872 123.733432,32.9262463 123.971358,32.53992 C125.730815,29.6886358 127.634222,26.9260674 129.798914,24.3352568 C131.565432,22.22052 133.644296,20.4090674 135.938815,18.8194042 C136.058864,18.7363621 136.176198,18.6507411 136.358173,18.5212779 C135.578123,18.6687937 134.885531,18.8121832 134.188049,18.9297832 C132.107556,19.28052 130.053679,19.1077305 128.019901,18.6151516 C126.755309,18.3087726 125.492889,17.9585516 124.170173,18.0472674 C121.448691,18.2298568 119.207951,19.2212042 117.886321,21.6149832 C117.028593,23.1680253 117.659802,24.9758674 119.346469,25.6902358 C121.895753,26.7697832 124.311407,26.4897095 126.536938,24.8629095 C127.447901,24.1965095 128.204049,23.3908463 128.900988,22.5299937 C128.972691,22.4417937 129.048741,22.3566884 129.18563,22.3009832 C129.123704,22.4227095 129.075358,22.5532042 128.997679,22.6651305 C127.617383,24.64112 125.819901,26.0863621 123.284741,26.4592779 C121.810469,26.6764253 120.344346,26.5191095 118.993926,25.8362042 C117.239358,24.9495621 116.961235,23.1638989 117.458815,21.8898989 C118.175309,20.0562674 119.626765,18.8880042 121.470963,18.1266989 C123.123951,17.4448253 124.848642,17.2637832 126.625481,17.5505621 C127.816741,17.7424358 129.001481,17.9766042 130.198173,18.1272147 C133.689926,18.5661516 137.055111,18.1653832 140.238321,16.6664989 C140.299704,16.6376147 140.362716,16.6118253 140.495802,16.5530253 C135.006123,21.0842358 131.273185,26.6717832 128.565284,33.0092884 C129.540889,33.0092884 130.451852,32.9747305 131.357926,33.0221832 C131.903309,33.0510674 132.196099,32.8478463 132.503556,32.4434674 C134.330914,30.0414358 136.129481,27.6156779 138.063309,25.2920463 C139.495753,23.5703411 141.077037,21.9543726 142.669728,20.3616147 C144.034815,18.9968358 145.504741,17.7243832 147.271259,16.8181411 C147.640099,16.6293621 148.039901,16.4937095 148.436988,16.36012 C144.605185,19.5662674 137.165383,30.5809516 136.382074,32.9582253 L137.769975,32.9582253 L137.769975,33.6658884 C137.255012,33.6658884 136.748198,33.6535095 136.243012,33.6746568 C136.124593,33.6798147 135.950222,33.7726568 135.904593,33.8691095 C134.680198,36.43052 133.425383,38.9826463 132.51442,41.66372 C132.127654,42.8041305 131.831062,43.9801305 131.609975,45.1597411 C131.510568,45.6904884 131.627358,46.2862253 131.771309,46.8221305 C131.979358,47.5973621 132.867506,48.0548674 133.691556,47.9011621 C134.546025,47.7412674 135.289679,47.3492674 136.004,46.8948568 C136.154469,46.79892 136.316346,46.7184568 136.529827,46.5982779 C136.499951,46.7024674 136.501037,46.7396042 136.482025,46.7581726 C134.499309,48.70992 131.783259,49.0482779 129.706568,47.22032 C128.735309,46.3656568 128.289333,45.24072 128.049235,44.0342884 C127.64563,42.0082674 128.042716,40.0781832 128.966173,38.2553832 C129.683753,36.8374779 130.526815,35.4763095 131.314469,34.0903832 C131.374222,33.9841305 131.437235,33.8799411 131.540988,33.7025095 C131.011901,33.7025095 130.555062,33.6988989 130.098222,33.7035411 C129.588148,33.7092147 129.077531,33.7391305 128.568,33.7267516 C128.304543,33.7200463 128.175802,33.7974147 128.063358,34.0300358 C126.835704,36.5785516 125.412494,39.0259726 123.530815,41.19332 C120.947309,44.1678779 117.878173,46.5740358 114.016494,47.9109621 C111.287407,48.8564042 108.481185,49.0064989 105.664642,48.2312674 C104.61842,47.9434568 103.672148,47.4498463 102.838864,46.7751937 C102.757926,46.7096884 102.68079,46.6385095 102.607457,46.5652674 C102.576494,46.53432 102.559654,46.4904779 102.583012,46.3790674 C102.720444,46.4554042 102.869284,46.5183305 102.993679,46.6096253 C104.053481,47.3905305 105.233877,47.8882674 106.560395,48.1188253 C108.947259,48.5340358 111.097827,48.05332 113.063704,46.7220674 C114.952444,45.4429095 116.46963,43.8228147 117.850469,42.07532 C119.743556,39.6794779 121.278123,37.0747411 122.770864,34.4452463 C122.89363,34.2291305 123.020198,34.0150779 123.170123,33.7566674 L120.204741,33.7566674 Z" id="Fill-6"></path>
                        <path d="M40.856879,15.2636547 C40.6385086,15.1718442 40.4288296,15.0707495 40.2093728,14.9928653 C39.2315951,14.6462547 38.206558,14.5327811 37.1755457,14.4806863 C34.9798914,14.3692758 32.916237,14.8592758 30.9601383,15.77996 C28.2283358,17.0658232 26.0017185,18.9324653 24.1406815,21.2045179 C23.2938173,22.2386758 22.5333235,23.3254442 22.0813728,24.5808758 C21.9960889,24.8171074 22.0194469,25.0007284 22.1916444,25.1987916 C24.3280889,27.6534337 24.8751012,30.4443705 24.1352494,33.5097074 C23.3329284,36.8355179 21.5365333,39.5779705 18.7710519,41.7442863 C17.4173728,42.8047495 15.9392988,43.6738547 14.2548049,44.1911916 C14.1005333,44.2386442 13.9359407,44.2561811 13.7756938,44.2871284 C13.7632,44.2515389 13.7512494,44.2159495 13.7387556,44.18036 C13.8544593,44.1267179 13.9674469,44.0648232 14.0869531,44.0204653 C15.7627556,43.3994547 17.2891753,42.5525284 18.5803852,41.3502232 C20.844484,39.2416758 22.2334716,36.6668547 23.0553481,33.7856547 C23.6822123,31.58736 23.6403852,29.4194968 22.7440889,27.2944442 C22.5018173,26.7208863 22.1688296,26.1824021 21.8782123,25.6274126 C21.835842,25.6361811 21.7940148,25.6449495 21.7516444,25.6532021 C21.6777679,26.2860758 21.5626074,26.9168863 21.540879,27.5513074 C21.5191506,28.1996547 21.5283852,28.8598653 21.6348543,29.4984126 C21.7364346,30.1060126 21.9819654,30.6924653 22.1639407,31.2882021 C22.1313481,31.3000653 22.0987556,31.3119284 22.066163,31.3243074 C21.9390519,31.0643495 21.7902123,30.8121284 21.6897185,30.5434021 C21.0932741,28.9563179 21.1323852,27.3290021 21.4463605,25.7068442 C21.538163,25.2333495 21.3974716,24.9713284 21.036237,24.7165284 C19.6113975,23.7117705 18.010558,23.1376968 16.2413235,23.1552337 C13.0228049,23.1872126 10.2182123,24.2935811 7.85796543,26.3588021 C5.79539753,28.1635495 4.31678025,30.3778337 3.12715062,32.7700653 C2.44813827,34.1348442 1.81312593,35.5228337 1.69253333,37.0552442 C1.58715062,38.4019705 1.44808889,39.7486968 1.79194074,41.0912968 C2.25855802,42.9166758 3.1097679,44.5305811 4.69594074,45.6957495 C7.29411358,47.6036547 10.3045827,48.0472337 13.4590025,47.6449179 C15.7399407,47.3540126 17.7297185,46.3281074 19.5255704,44.9824126 C21.2513481,43.6898442 22.5697185,42.0465389 23.8272494,40.3609389 C25.8447309,37.6561389 27.3581136,34.6846758 28.8595457,31.7085705 C30.3457679,28.7639284 31.8455704,25.8275389 33.6674963,23.0510442 C35.6056691,20.0976337 37.9990519,17.5269389 40.856879,15.2636547 M46.7637432,14.9598547 C45.1232494,13.7915916 43.178558,13.8411074 42.0052247,15.0815811 C44.5056198,16.71096 46.2161877,18.8303389 46.3291753,21.8136653 C46.4057679,23.8252442 45.7452247,25.6521705 44.4034963,27.2351284 C41.8656198,30.2282547 37.0538667,30.8105811 35.2677926,29.7630126 C35.7507062,29.84296 36.3009778,29.9811916 36.8593975,30.0178126 C39.0202864,30.1591389 40.7303111,29.3003495 42.0992,27.7736126 C43.4995951,26.2112863 44.2236938,24.3637284 44.5778667,22.3614337 C44.8049284,21.0771179 44.772879,19.8222021 44.2003358,18.6204126 C43.6462617,17.4583389 42.8173235,16.5010337 41.7336198,15.74076 C41.5081877,15.5824126 41.3283852,15.5720968 41.1675951,15.7954337 C40.4923852,16.7321074 39.7509037,17.6331916 39.1620642,18.6168021 C37.4123852,21.5392653 36.0967309,24.6520547 34.8022617,27.7746442 C33.6479407,30.55836 32.5066568,33.35136 31.2132741,36.0773074 C29.4119901,39.8735179 26.7508049,43.0322126 23.0108049,45.2949811 C20.4843358,46.8242968 17.7188543,47.7429179 14.7632494,48.1715389 C13.1960889,48.3990021 11.6294716,48.5026758 10.0487309,48.3077074 C6.16369383,47.8280232 3.22221235,45.9985179 1.38724938,42.7067495 C-0.465639506,39.3835179 -0.376009877,35.91896 1.14280494,32.5544653 C3.54705185,27.2299705 7.88295309,24.0573495 13.8506568,22.9174547 C16.6112494,22.3903179 19.1464099,22.9778021 21.4479901,24.5040232 C21.5142617,24.5478653 21.5843358,24.5865495 21.6462617,24.6236863 C21.9281877,24.0305284 22.1536198,23.4224126 22.4876938,22.8736126 C24.7947062,19.0856547 27.9252247,16.1193495 32.2714469,14.5198863 C35.2677926,13.4171284 38.3217185,13.4356968 41.3153481,14.6808126 C41.4430025,14.7339389 41.6635457,14.7014442 41.7879407,14.6276863 C42.6559901,14.1134442 43.5832494,13.8163495 44.6153481,13.8550337 C45.4269037,13.8854653 46.0961383,14.2155705 46.6692247,14.7447705 C46.7023605,14.7752021 46.7284346,14.8144021 46.7517926,14.8530863 C46.7621136,14.8695916 46.7572247,14.8943495 46.7637432,14.9598547" id="Fill-8"></path>
                        <path d="M144.777111,37.9886684 C144.847728,38.0170368 144.899877,38.0469526 144.95637,38.0583 C145.036765,38.0748053 145.12042,38.0789316 145.202988,38.0856368 C146.762,38.2171632 148.00758,37.5688158 149.128222,36.6393632 C149.758889,36.1163526 150.305358,35.5180368 150.55958,34.7391947 C150.809457,33.9722158 150.196716,33.3610053 149.384074,33.5864053 C148.923975,33.7138053 148.458988,33.8912368 148.059728,34.1388158 C146.611531,35.0368053 145.597901,36.2984263 144.849358,37.7632684 C144.814593,37.8308368 144.802099,37.9087211 144.777111,37.9886684 M171.430247,40.6042368 C171.205358,40.4758053 171.020123,40.3793526 170.844667,40.2679421 C170.516025,40.0600789 170.277012,39.7887737 170.235728,39.3993526 C170.107531,38.2011737 170.468222,37.1536053 171.347679,36.2845 C171.656222,35.9796684 172.060914,35.8244158 172.513951,35.9213842 C172.70679,35.9626474 172.880074,36.0864368 173.097901,36.1895947 C173.145704,35.7712895 173.203284,35.3818684 173.231531,34.9909 C173.26684,34.5096684 173.177753,34.0506158 172.716568,33.7689947 C172.247235,33.4827316 171.727383,33.5435947 171.304765,33.8241842 C170.786543,34.1692474 170.265062,34.5504158 169.867975,35.0115316 C168.11721,37.0427105 166.995481,39.3936789 166.183926,41.8818474 C165.993802,42.4662368 165.884074,43.0872474 165.838988,43.6979421 C165.795531,44.2833632 166.210543,44.6124368 166.818395,44.5051526 C167.216025,44.4350053 167.622889,44.2911 167.967284,44.0899421 C169.435037,43.2327 170.478543,41.9860368 171.430247,40.6042368 M140.884469,42.5007947 C140.542247,42.8608158 140.255975,43.2223842 139.906148,43.5158684 C139.393358,43.9455211 138.861556,44.3653737 138.288469,44.7166263 C137.747432,45.0477632 137.122198,45.1416368 136.474691,44.9863842 C135.283975,44.7006368 134.58758,43.6045842 135.026494,42.5131737 C135.485506,41.3712158 136.039037,40.2596895 136.608864,39.1620895 C137.541556,37.3650789 138.524765,35.5917947 139.476469,33.8040684 C139.597062,33.5781526 139.714395,33.4915 139.994148,33.5745421 C140.744864,33.7983947 141.512963,33.7530053 142.344074,33.6044579 C141.917654,34.3982579 141.522741,35.1368684 141.125654,35.8749632 C139.724173,38.4812474 138.321605,41.0865 136.921753,43.6938158 C136.80116,43.9181842 136.688173,44.1652474 136.90437,44.3844579 C137.12763,44.6103737 137.422049,44.6459632 137.725704,44.5407421 C138.554099,44.2549947 139.175531,43.6958789 139.775778,43.1161316 C140.359185,42.5528895 140.739975,41.9148579 140.917062,41.1055842 C141.308173,39.3219842 142.306049,37.8163947 143.595086,36.4841105 C144.962889,35.0703316 146.542,33.9448789 148.473111,33.3037526 C149.027185,33.1201316 149.586691,33.0897 150.155432,33.1825421 C151.013704,33.3218053 151.561259,34.0201842 151.477062,34.8397737 C151.356469,36.0162895 150.78121,36.9400684 149.72684,37.5626263 C148.11079,38.5178684 146.345901,38.7938158 144.434346,38.5235421 C143.599432,39.9600158 143.119778,41.4960368 143.352272,43.1867947 C143.511432,44.3462895 144.447926,44.6490579 145.437111,44.4009632 C146.264963,44.1941316 146.917358,43.6886579 147.508914,43.1305737 C149.95879,40.8208684 151.761704,38.1005947 153.112667,35.0966368 C153.278889,34.7268158 153.320716,34.4307526 153.014346,34.0573211 C152.484173,33.4115526 152.570543,32.5656579 153.121358,31.9379421 C153.329951,31.7001632 153.599383,31.5681211 153.936173,31.6279526 C154.264815,31.6867526 154.334889,31.9523842 154.409852,32.2025421 C154.557605,32.6982158 154.46037,33.1572684 154.177901,33.5936263 C154.105111,33.7055526 154.089358,33.8510053 154.047531,33.9809842 C154.203432,33.9933632 154.366395,34.0397842 154.513062,34.0119316 C154.930247,33.9319842 155.337111,33.7983947 155.755383,33.7287632 C156.368667,33.6266368 156.915679,33.7566158 157.299728,34.2651842 C157.67237,34.7593105 157.652815,35.2885105 157.364914,35.7960474 C156.303481,37.6688789 155.216519,39.5293316 154.153457,41.4016474 C153.716173,42.1727526 153.245753,42.9350895 153.116469,43.8274053 C153.034988,44.3906474 153.395136,44.7114684 153.938889,44.4618263 C154.428321,44.2369421 154.92916,43.9300474 155.268123,43.5370158 C156.070988,42.6075632 156.823877,41.6332368 157.518099,40.6274474 C158.715877,38.8928474 159.762099,37.0788158 160.44763,35.0930263 C160.588321,34.6855526 160.580716,34.3781421 160.286296,34.0160579 C159.71484,33.3130368 159.810444,32.4733316 160.470988,31.8414895 C160.599728,31.7177 160.773556,31.6202158 160.94521,31.5562579 C161.310247,31.4216368 161.581852,31.5521316 161.683432,31.9142158 C161.844222,32.4862263 161.850741,33.0468895 161.497111,33.5750579 C161.430296,33.6740895 161.437358,33.8179947 161.410741,33.9412684 C161.553605,33.9551947 161.702444,33.9995526 161.839333,33.9778895 C162.419481,33.8876263 162.994198,33.7055526 163.574346,33.6921421 C164.325605,33.6751211 164.729753,34.1254053 164.775926,34.8439 C164.828074,35.6614263 164.466296,36.3711526 164.059975,37.0401316 C163.10121,38.6199947 162.085951,40.1694263 161.103284,41.7369105 C160.788765,42.2392895 160.486741,42.7509526 160.213506,43.2744789 C160.01958,43.6448158 159.870198,44.0930368 160.226543,44.4117947 C160.601358,44.7470579 161.07558,44.5195947 161.400963,44.2849105 C162.096272,43.7830474 162.736173,43.2120684 163.392914,42.6632684 C163.447235,42.6178789 163.483086,42.5271 163.486889,42.4559211 C163.586296,40.7001737 164.345704,39.1708579 165.306642,37.7178789 C166.31321,36.1947526 167.53163,34.8500895 169.126494,33.8504895 C169.897309,33.3671947 170.723531,33.0097526 171.671432,32.9875737 C172.932765,32.9576579 173.636222,33.5807316 173.644914,34.7830368 C173.653605,35.9992684 173.377111,37.1747526 172.977852,38.3234158 C172.779037,38.8949105 172.535136,39.4529947 172.301012,40.0440895 C173.02837,39.9641421 173.657407,39.6866474 174.237012,39.3116684 C174.794889,38.9506158 175.328321,38.5550053 175.872074,38.1748684 C175.90358,38.2094263 175.935086,38.2434684 175.966593,38.2780263 C175.816123,38.4394684 175.681407,38.6174158 175.513556,38.7608053 C174.532519,39.5969 173.475975,40.3071421 172.145654,40.5624579 C172.022346,40.5861842 171.897407,40.7192579 171.821901,40.8311842 C171.042938,41.9865526 170.165111,43.0599105 169.037407,43.9310789 C168.443136,44.3896158 167.79563,44.7589211 167.048716,44.9507947 C165.85963,45.2561421 164.894346,44.9471842 164.164272,44.0048368 C163.948074,43.7252789 163.775333,43.4152895 163.58521,43.1233526 C163.082198,43.5432053 162.586247,43.9795632 162.064765,44.3865211 C161.600321,44.7496368 161.066346,44.9956684 160.457951,45.0529211 C159.272667,45.1638158 158.512173,44.5696263 158.337259,43.4503632 C158.184074,42.4693316 158.46437,41.5734053 158.881012,40.7043 C159.658889,39.0831737 160.780074,37.6668158 161.88279,36.2406579 C162.198938,35.8321526 162.537358,35.4370579 162.823086,35.0099842 C162.919235,34.8671105 162.934988,34.6298474 162.88284,34.4658263 C162.861654,34.3998053 162.55637,34.3863947 162.384716,34.3987737 C161.939284,34.4317842 161.496025,34.4921316 161.048963,34.5421632 C160.006,37.3599211 158.524667,40.0012789 156.702741,42.4729421 C156.082395,43.3152263 155.396321,44.1074789 154.512519,44.7233316 C153.761802,45.2468579 152.969802,45.2943105 152.136519,44.9244895 C151.672617,44.7181737 151.41242,44.3664053 151.288568,43.9021947 C151.035975,42.9546895 151.230444,42.0479316 151.553654,41.1530368 C152.13163,39.5556368 153.127877,38.1826053 154.146395,36.8229842 C154.593457,36.2262158 155.052469,35.6371842 155.503877,35.0435105 C155.639136,34.8655632 155.794494,34.6422263 155.590247,34.4715 C155.466395,34.3678263 155.207284,34.3771105 155.012815,34.3900053 C154.59237,34.4178579 154.174642,34.4813 153.705852,34.5354579 C153.279432,35.8563947 152.551531,37.1180158 151.781802,38.3574579 C150.681802,40.1297105 149.465012,41.8261421 147.888617,43.2528158 C147.360074,43.7314684 146.776667,44.1786579 146.150889,44.5330053 C144.264321,45.6006895 141.968173,44.8564053 141.080568,42.9345737 C141.020272,42.8045947 140.962691,42.6735842 140.884469,42.5007947" id="Fill-11"></path>
                        <path d="M108.183398,38.1591368 C108.396336,38.2215474 108.484336,38.2586842 108.576138,38.2710632 C108.692928,38.2870526 108.812978,38.2891158 108.930854,38.2860211 C110.572978,38.2432105 111.89678,37.5484421 112.962015,36.4147368 C113.337916,36.015 113.648089,35.5188105 113.842015,35.0154 C114.065817,34.4361684 113.542706,33.9343053 112.8952,34.0431368 C112.514953,34.1070947 112.13036,34.2107684 111.781077,34.3644737 C110.831002,34.7817474 110.119941,35.4821895 109.509373,36.2656737 C109.048188,36.8567684 108.647842,37.4911895 108.183398,38.1591368 M102.183101,35.3449895 C102.195052,34.2690526 101.680632,33.7692526 100.789768,33.8259895 C100.47199,33.8461053 100.116731,33.9415263 99.860879,34.1132842 C99.2932247,34.4944526 98.7293728,34.9019263 98.2502617,35.3769684 C96.8205333,36.7938421 95.7172741,38.4366316 94.7710025,40.1727789 C94.2381136,41.1512316 93.7231506,42.1482526 93.5797432,43.2608105 C93.4613235,44.1789158 94.050163,44.8834842 95.0670519,44.6534421 C95.3527802,44.5889684 95.6401383,44.5105684 95.9079407,44.3970947 C96.7113481,44.0577053 97.3718914,43.5269579 97.9753975,42.9312211 C99.8462123,41.0846947 101.064089,38.8791789 101.881077,36.4596105 C102.02883,36.0237684 102.122805,35.5714211 102.183101,35.3449895 M102.770854,35.1433158 C103.447151,33.9198632 104.085965,32.7660421 104.722607,31.6106737 C105.673768,29.8858737 106.623842,28.1605579 107.57283,26.4347263 C107.656484,26.2830842 107.717867,26.1376316 107.961768,26.1783789 C108.73041,26.3078421 109.496879,26.2732842 110.258459,26.1118421 C110.325817,26.0974 110.398064,26.1035895 110.513225,26.0979158 C110.468681,26.2021053 110.442607,26.2805053 110.403496,26.3522 C107.459299,31.7483895 104.514015,37.1440632 101.569817,42.5402526 C101.32483,42.9895053 101.060286,43.4325684 100.860928,43.9003895 C100.778904,44.0927789 100.76804,44.3800737 100.863644,44.5575053 C100.99836,44.8076632 101.30636,44.7272 101.538854,44.6410632 C102.610064,44.2454526 103.458015,43.5785368 104.095743,42.6748737 C104.176681,42.5593368 104.236435,42.3999579 104.229373,42.2643053 C104.14083,40.6354421 104.867101,39.2933579 105.860089,38.0446316 C107.023644,36.5813368 108.387101,35.3274526 110.09278,34.4356526 C111.081422,33.9183158 112.115694,33.6640316 113.264583,33.7393368 C114.261373,33.8048421 115.156583,34.7961895 114.74483,35.8014632 C114.247249,37.0156316 113.321077,37.8058211 112.123842,38.3386316 C110.896731,38.8848526 109.601719,39.0266947 108.269768,38.7724105 C108.003595,38.7213474 107.861274,38.7827263 107.737422,39.0127684 C107.095348,40.2088842 106.620583,41.4478105 106.611891,42.8100105 C106.610262,43.0225158 106.634163,43.2401789 106.684681,43.4464947 C106.916632,44.3878105 107.665719,44.7958 108.784731,44.6240421 C109.928731,44.4491895 110.866311,43.8998737 111.719694,43.1953053 C112.757768,42.3370316 113.584533,41.3064842 114.372731,40.2449895 C114.479743,40.1005684 114.593274,39.9607895 114.704089,39.8189474 C114.730706,39.8323579 114.757323,39.8457684 114.784484,39.8591789 C114.737225,39.9649158 114.70083,40.0763263 114.642163,40.1753579 C113.70078,41.7681158 112.512237,43.1612632 110.921719,44.2088316 C109.697323,45.0150105 108.321916,45.3095263 106.861768,45.0413158 C105.820978,44.8504737 105.086558,44.1763368 104.459694,43.3985263 C104.417867,43.3459158 104.378756,43.2907263 104.326064,43.2216105 C103.953422,43.5352105 103.608484,43.8601579 103.225521,44.1371368 C102.859941,44.4022526 102.465027,44.6359053 102.064138,44.8515053 C100.550756,45.6628421 98.6299654,44.6668526 98.5908543,43.0751263 C98.2274469,43.3727368 97.8922864,43.6693158 97.5337679,43.9364947 C96.8601877,44.4388737 96.1703111,44.9593053 95.2984593,45.0629789 C94.5895704,45.1475684 93.8453728,45.1862526 93.1457185,45.0774211 C91.7659654,44.8623368 90.9430025,43.5965895 91.148879,42.2013789 C91.3194469,41.0485895 91.8344099,40.0283579 92.4884346,39.0679579 C93.8687309,37.0393579 95.6042864,35.3501474 97.8417679,34.1664105 C98.7614222,33.6800211 99.7343111,33.3339263 100.81204,33.3406316 C101.747447,33.3457895 102.318904,33.7372737 102.609521,34.5898737 C102.664385,34.7497684 102.704583,34.9143053 102.770854,35.1433158" id="Fill-13"></path>
                        <path d="M27.2196494,5.17238842 C27.9882914,5.50971474 28.7433531,5.44111474 29.5847852,5.20385158 C29.4402914,5.45710421 29.3327358,5.63556737 29.2338716,5.81867263 C27.2381185,9.52616737 25.2423654,13.2336621 23.2498716,16.9421884 C23.116242,17.1913147 22.9679457,17.4419884 22.8940691,17.7091674 C22.7761926,18.1367568 23.1146123,18.4390095 23.5193037,18.2337253 C24.0565383,17.9613884 24.6030074,17.6493358 25.0256247,17.2418621 C25.9327852,16.3691463 26.7628099,15.42422 27.624884,14.5086937 C27.7579704,14.3668516 27.8937728,14.2270726 28.0768346,14.1161779 C28.0328346,14.2007674 27.9986123,14.2915463 27.9442914,14.3694305 C26.926316,15.8213779 25.7757975,17.1644937 24.3400938,18.26622 C23.8854272,18.6148937 23.3981679,18.9491253 22.7952049,18.9805884 C21.4594519,19.0507358 20.7119951,18.2543568 20.9868593,16.9086621 C21.1481926,16.12002 21.5501679,15.3566516 21.9472543,14.6324832 C23.5882914,11.6378095 25.2689827,8.66273579 26.9350074,5.67992526 C27.0235506,5.52209368 27.112637,5.36374632 27.2196494,5.17238842" id="Fill-15"></path>
                        <path d="M140.731664,32.0080895 C140.741985,31.0198368 142.046232,30.2105632 142.995763,30.6231947 C143.152207,30.6912789 143.313541,30.8805737 143.350479,31.0394368 C143.484109,31.6191842 143.195664,32.0746263 142.742627,32.4238158 C142.275467,32.7833211 141.734973,32.9205211 141.149936,32.6884158 C140.851714,32.5697842 140.727862,32.3454158 140.731664,32.0080895" id="Fill-17"></path>
                        <path d="M79.2005975,30.8210516 C80.0203012,30.8184726 80.3359062,31.2801042 80.0105235,32.0053042 C79.6938321,32.71142 79.0354617,33.1168305 78.2842025,33.0683463 C77.6415852,33.0265674 77.3319556,32.6227042 77.485684,32.0274832 C77.6741778,31.30022 78.3521037,30.8236305 79.2005975,30.8210516" id="Fill-19"></path>
                    </g>
                </g>
            </g>
        </g>
    </g>
</svg>