<?xml version="1.0" encoding="UTF-8" standalone="no"?>
<svg width="167px" height="46px" viewBox="0 0 167 46" version="1.1" xmlns="http://www.w3.org/2000/svg" xmlns:xlink="http://www.w3.org/1999/xlink">
    <!-- Generator: sketchtool 39.1 (31720) - http://www.bohemiancoding.com/sketch -->
    <title>3715238A-C9F6-497E-8FAC-4AACF8A3E5BA</title>
    <desc>Created with sketchtool.</desc>
    <defs></defs>
    <g id="Desktop-UI---Main-menu" stroke="none" stroke-width="1" fill="none" fill-rule="evenodd">
        <g id="Menu---desktop-V2" transform="translate(-132.000000, -603.000000)" fill="#000000">
            <g id="Header-Desktop---Regular-Copy-5" transform="translate(-86.000000, 537.000000)">
                <g id="Group" transform="translate(173.000000, 0.000000)">
                    <g id="Header-Desktop---Regular-Copy-6">
                        <g id="Logo" transform="translate(45.000000, 66.000000)">
                            <g id="logo">
                                <path d="M15.5307394,6.25954789 C15.877418,6.6681678 16.2661492,6.91535171 16.7348833,6.98768653 C16.9236077,7.01690789 17.2687477,6.91391459 17.3225957,6.78840648 C17.4123424,6.58050374 17.1923349,6.40325946 16.954378,6.31224213 C16.5030804,6.14026728 16.048193,6.16517729 15.5307394,6.25954789 L15.5307394,6.25954789 Z M15.6881807,3.47010621 C16.8128347,4.12543099 17.9846697,4.62842151 19.3518961,4.57812246 C20.2278236,4.54602687 21.062724,4.38027952 21.772492,3.85956458 C22.3150747,3.46148352 22.4176423,2.97286416 22.0596813,2.42244883 C21.7063359,1.87969811 21.1755484,1.5381436 20.5314238,1.36329452 C18.959575,0.93695018 16.8841192,1.59514919 15.6881807,3.47010621 L15.6881807,3.47010621 Z M20.1370513,0.984375 C20.4575751,1.06868579 20.7837401,1.13766735 21.0970842,1.24066064 C21.6571034,1.42413242 22.1407097,1.7206573 22.510466,2.16280992 C23.1499751,2.9273555 23.0725366,3.74986474 22.2996895,4.39417164 C21.7135156,4.88231196 21.0196456,5.10602298 20.2406446,5.1175199 C18.7185411,5.13955568 17.3323397,4.71177422 16.0287052,4.01094077 C15.864597,3.92279767 15.7025402,3.83225938 15.5245853,3.73501455 C15.0604669,4.3539324 15.0102087,5.00542487 15.2553453,5.68709678 C15.2804744,5.75607833 15.4097096,5.81979047 15.5004819,5.83655682 C15.8840848,5.90505933 16.2753803,5.93859203 16.6559062,6.01859148 C16.846682,6.05883072 17.0323294,6.15368036 17.1979761,6.25571558 C17.4400357,6.40421754 17.5964513,6.63750933 17.492858,6.90002247 C17.385162,7.17259543 17.0851517,7.20612813 16.8082191,7.18409235 C16.2205066,7.13810465 15.7010016,6.92493248 15.2707305,6.54888719 C15.0927757,6.39367869 14.9255904,6.36924772 14.6943004,6.42290004 C12.9803955,6.82002303 11.5147042,7.64971786 10.1833765,8.69785428 C8.66383717,9.89401362 7.40892232,11.2875369 6.71043683,13.0556683 C6.39811842,13.8475191 6.18888047,14.6647589 6.4422225,15.5121781 C6.82120986,16.77684 7.83047525,17.4173146 9.09513401,17.7689289 C10.5623638,18.1765907 12.0019004,17.9638976 13.4163079,17.521745 C15.1543162,16.9785152 16.6697528,16.1287008 17.7523541,14.703082 C18.3282713,13.9452429 18.6898221,13.0978237 18.7621323,12.1775906 C18.7934154,11.7804676 18.7087971,11.3215486 18.5113545,10.9718504 C17.923642,9.9285044 16.9754043,9.32683194 15.684078,9.28707174 C13.5634924,9.22240153 11.8593314,10.0712579 10.4690273,11.487775 C9.7854141,12.1842971 9.22026651,12.9823754 8.62486147,13.7656035 C8.65460608,13.6808136 8.67204258,13.5897963 8.71665949,13.512192 C9.90285403,11.4566375 11.5506029,9.88826516 14.0070974,9.19413825 C14.9927722,8.91581683 16.004089,8.89521817 16.9933537,9.1438392 C19.013423,9.65209914 20.1211533,11.6444206 19.4801056,13.5648863 C18.9739344,15.0815224 17.8579987,16.1416348 16.4820541,16.9962397 C14.6594275,18.1286869 12.6311527,18.4256908 10.4833868,18.3399429 C8.11202337,18.2450933 6.35298867,17.236238 5.21448807,15.3296644 C4.13804089,13.5260842 4.44933362,11.3900511 5.91861479,9.77281686 C7.12583569,8.44300575 8.69153043,7.6080415 10.3849218,6.95415383 C11.7552253,6.42529524 13.1706584,6.04398052 14.7009673,5.8748799 C14.293261,5.02602353 14.1988988,4.18052043 14.6891721,3.32926887 C13.137324,2.4780173 11.5936813,1.69766345 9.77208031,1.63922074 C9.17205973,1.6200592 8.59203983,1.74748346 8.09202268,2.09382836 C7.57662039,2.45071211 7.33661215,2.97286416 7.47148857,3.44950755 C7.60892919,3.93764787 8.06791929,4.2806395 8.73973721,4.3079447 C9.22847192,4.32758528 9.7207965,4.26051988 10.2115826,4.23321468 C10.2700461,4.22986141 10.3290225,4.23273564 10.3890246,4.26483122 C9.68079513,4.34866297 8.97820693,4.5637513 8.25869506,4.32375297 C7.27917428,3.99656962 6.99044643,3.10843208 7.61918595,2.33286861 C8.08740714,1.75514808 8.75050681,1.53479033 9.49309638,1.49023974 C10.5536456,1.42700665 11.5685522,1.63299324 12.5367905,2.0186193 C13.235276,2.29694072 13.9122223,2.62412407 14.5963484,2.933583 C14.7353275,2.99633705 14.8389208,3.04088764 14.971233,2.89573895 C15.9769085,1.78963886 17.2733633,1.19754717 18.8057235,1.0303627 C18.8472634,1.02557232 18.8857263,1.00018327 18.9257276,0.984375 L20.1370513,0.984375 Z" id="Fill-1"></path>
                                <path d="M80.3898361,38.7601601 C80.3180388,38.7112982 80.2688063,38.671538 80.2139326,38.6408795 C79.7046844,38.3544145 79.4877539,37.9338186 79.4959593,37.381008 C79.5057032,36.7261623 79.6913506,36.1196995 80.019567,35.5515597 C80.5672781,34.6016262 81.4452569,34.3697715 82.2647722,34.8904865 C82.4811899,34.2059403 82.6083737,33.5357653 82.2786188,32.8655904 C82.0893816,32.4804433 81.7842429,32.3625998 81.3396123,32.4593656 C80.545226,32.6322986 79.9790528,33.1290616 79.4539065,33.6612734 C78.0877058,35.0442578 77.0712607,36.6476 76.2455914,38.349145 C75.8276283,39.2094983 75.4988991,40.1163184 75.2250435,41.0269707 C75.0101644,41.7436124 75.5994154,42.2073218 76.3579029,41.9960658 C76.5179084,41.9515152 76.6881706,41.9093598 76.8245856,41.82457 C77.3461419,41.502177 77.8841091,41.1946342 78.3625871,40.8224212 C79.1287672,40.2264972 79.8021236,39.5400349 80.3898361,38.7601601 M37.7186287,32.15326 C37.6847814,32.15326 37.6509341,32.1513438 37.6175996,32.15326 C36.7934688,32.1968525 36.1621651,32.6169693 35.5867607,33.1060677 C33.6918239,34.7165954 32.3369056,36.6945458 31.2358422,38.8296207 C30.9332678,39.4174011 30.691721,40.049732 30.5481263,40.6863743 C30.3635046,41.5012189 30.9912185,42.0382212 31.8348371,41.800618 C32.4138314,41.6367868 32.9887229,41.39104 33.4938684,41.080144 C34.6508312,40.3678136 35.5339384,39.3848264 36.3170422,38.3299835 C37.461184,36.7893954 38.4073703,35.1606642 38.7463563,33.2799587 C38.8755915,32.5618799 38.4894244,32.1403259 37.7186287,32.15326 M49.8508398,41.9716348 C49.8851999,41.9692396 49.964177,41.9697186 50.0411027,41.9577427 C50.195467,41.9328327 50.3498313,41.9079227 50.5016313,41.8715157 C51.6678252,41.5917572 52.5519581,40.9096063 53.3371132,40.1019472 C54.6725436,38.7295017 55.6125759,37.1285547 56.3479857,35.4207822 C56.6685095,34.6763562 56.9372367,33.9098945 57.1787835,33.1396004 C57.3485329,32.5987659 57.0587793,32.2423612 56.4715797,32.1513438 C56.0136153,32.0804461 55.5628306,32.1312242 55.172048,32.3496658 C54.7043396,32.6107418 54.2289387,32.886189 53.8355918,33.2330129 C52.0447612,34.8133612 50.7431781,36.7266413 49.675962,38.7802798 C49.3513355,39.4049461 49.1020961,40.0736839 48.9108075,40.745296 C48.7195189,41.41595 49.1790219,41.9807365 49.8508398,41.9716348 M73.1367668,40.1172764 C72.5280279,40.6360752 71.8977499,41.21667 71.2172137,41.738822 C70.7038628,42.1321127 70.111022,42.4157036 69.4120236,42.4142664 C68.2591636,42.4123503 67.5381132,41.7953486 67.4370841,40.7256554 C67.4273401,40.6250573 67.408878,40.5244592 67.396057,40.4329629 C66.8073189,40.8276907 66.2555051,41.2387058 65.6616386,41.5869668 C64.8082759,42.0866041 63.8887572,42.4238472 62.8533371,42.4166616 C61.2943092,42.4061228 60.1829891,41.4691233 60.0286248,40.0185945 C60.0229836,39.9692535 60.0158039,39.9203916 59.9988802,39.7929673 C59.8527213,39.9424274 59.7542564,40.0458997 59.6516888,40.1464978 C58.7393498,41.0413419 57.7639317,41.862893 56.4392709,42.1718729 C56.0259234,42.2686387 55.5669333,42.3012133 55.1458932,42.2461239 C54.1976556,42.1220529 53.6971256,41.527087 53.4971187,40.6480512 C53.2155706,40.8636186 52.9601772,41.0763117 52.6868345,41.266011 C51.6852617,41.961575 50.5939422,42.4046857 49.3133854,42.4228891 C48.0938564,42.4401345 46.780478,41.7598997 46.6912442,40.2145213 C46.4255941,40.4487711 46.1989196,40.6739193 45.9450648,40.8674509 C45.4773564,41.2233765 45.0214433,41.6027751 44.5106566,41.8969048 C43.3449756,42.5670798 41.3818313,42.5177388 40.8592493,40.6399075 C40.5182119,40.8899657 40.1925597,41.1381077 39.8561379,41.3723575 C39.0971375,41.9021742 38.2683912,42.2580999 37.2991272,42.2959439 C36.1606266,42.3404945 35.3380342,41.7321155 35.1534125,40.6777516 C35.1431558,40.6197879 35.1375145,40.5618242 35.1262321,40.4789506 C34.7251927,40.7764335 34.363129,41.0710423 33.973372,41.3292441 C32.9538499,42.0042094 31.8456067,42.4348651 30.5609473,42.3558237 C29.2752622,42.2772614 28.4875428,41.5242128 28.41113,40.3247001 C28.357282,39.4744067 28.5685713,38.6801607 28.9567897,37.9275911 C30.2414492,35.4361114 32.1507454,33.4969632 34.8210934,32.2567323 C35.7072777,31.8452382 36.6555153,31.6646406 37.6529854,31.7273947 C38.392498,31.7738614 39.0032882,32.0100274 39.3643262,32.6576876 C39.4043276,32.7295434 39.4617654,32.7932555 39.5474094,32.9101409 C39.7843406,32.5661912 40.0022968,32.2567323 40.2115348,31.942483 C40.3069226,31.7987714 40.3935923,31.7484724 40.6074458,31.768113 C41.3269576,31.8337412 42.0521107,31.8447591 42.7762381,31.8768547 C42.4654582,32.3951745 42.123908,32.9671465 41.7803065,33.5376815 C40.3202564,35.9625748 38.8586678,38.386031 37.3986177,40.8109243 C37.1206595,41.2727175 37.2093805,41.6219366 37.6591395,41.750798 C37.8196578,41.7967857 38.0206904,41.7872049 38.1847986,41.7436124 C39.5197161,41.3881658 40.5028268,40.595836 41.1392589,39.4734486 C43.6321649,35.0763534 46.0953263,30.6644081 48.5682317,26.2572531 C48.7913162,25.859172 48.99799,25.4529473 49.2267158,25.0577405 C49.2692814,24.9839685 49.3969781,24.8838495 49.4564673,24.8986997 C50.2488021,25.0931893 51.0293417,25.0117528 51.8632165,24.8095985 C51.4452534,25.573665 51.0565222,26.2869535 50.6652267,26.9992839 C48.5431026,30.8579397 46.4204657,34.7165954 44.2993673,38.5757303 C43.9260211,39.2545279 43.5572905,39.9357208 43.1926627,40.6188298 C43.1183011,40.757272 43.0465038,40.9052949 43.0193234,41.0561921 C42.925474,41.5855297 43.3906182,41.9505571 43.913713,41.7282832 C45.1255495,41.2137958 46.1035317,40.4310467 46.7881706,39.3570422 C46.9163801,39.156325 46.9620227,38.907704 47.0302302,38.6772865 C47.3528054,37.5869946 47.9851347,36.6528694 48.7205446,35.7757498 C49.9369966,34.3247419 51.3673021,33.1017564 53.1591584,32.289786 C54.1084217,31.8596093 55.1007635,31.6004495 56.1741336,31.6996104 C56.8987739,31.7666758 57.3993038,32.1149369 57.721879,32.7103819 C57.7608547,32.7822376 57.8085486,32.8497821 57.877269,32.9590029 C58.1193285,32.6059514 58.3342077,32.2768519 58.5706261,31.9616445 C58.6244741,31.8897888 58.7680687,31.8102684 58.8449945,31.8284718 C59.5937381,32.0081113 60.3419689,32.0574523 61.1502017,31.8423639 C61.0840456,31.9693092 61.0466084,32.0497876 61.0009659,32.1264338 C59.2855224,35.0150365 57.5700789,37.9036391 55.8505328,40.7908047 C55.7033482,41.0375096 55.5479583,41.2866096 55.789505,41.5385839 C56.017718,41.775708 56.321831,41.8279232 56.6515859,41.7301994 C57.5316161,41.4691233 58.2183063,40.9321211 58.8752519,40.3591909 C59.4978374,39.8169192 59.9388781,39.1879416 60.214785,38.4080668 C60.7753171,36.8224491 61.8235582,35.4988655 63.0497541,34.2993528 C63.9954275,33.3743293 65.0534126,32.5901432 66.3467903,32.12835 C67.0104028,31.8917049 67.6965802,31.7422449 68.4166049,31.8385316 C69.0479086,31.9233215 69.3402263,32.2188883 69.3945871,32.811938 C69.4351013,33.2603181 69.3550986,33.6842673 69.1371424,34.0895339 C68.8350807,34.6514462 68.4222461,35.1280896 67.9022282,35.5209012 C67.712991,35.6641338 67.4996503,35.8073663 67.2298975,35.6765888 C66.9452723,35.5381466 66.911425,35.2914417 66.9304,35.0298867 C66.9975818,34.1158811 67.4714442,33.4030716 68.2181365,32.8435546 C68.4299386,32.6849928 68.7007172,32.5954126 68.9499565,32.4708626 C68.8355936,32.1829604 68.5730205,32.0612846 68.1330054,32.1393679 C67.5934997,32.2342175 67.1611772,32.5240358 66.781677,32.8660694 C64.6298083,34.8028224 63.0518054,37.0796928 62.175878,39.7608717 C62.0086927,40.2724849 62.0097184,40.7936789 62.2051097,41.3043341 C62.4081936,41.8351088 62.8066688,42.0640892 63.398484,41.9893592 C64.8046861,41.8106778 65.9139549,41.1040959 66.9288615,40.2379942 C67.4637517,39.7819494 67.8519701,39.2320131 68.197623,38.6332149 C69.4781797,36.4157453 70.7966865,34.2174372 72.1018595,32.0124226 C72.1228858,31.9764947 72.154169,31.9463153 72.1869906,31.905597 C72.9475295,32.2059542 73.7255049,32.0622427 74.539379,31.9865546 C74.4921979,32.0885898 74.4604019,32.1714634 74.4168107,32.2481096 C72.768549,35.170724 71.118236,38.0923803 69.4730513,41.0164319 C69.3976641,41.1510417 69.3325337,41.3076873 69.3268925,41.4561893 C69.3145844,41.8101988 69.6628014,42.0717539 70.0028131,41.92421 C70.4643674,41.7239718 70.9264345,41.489722 71.3172172,41.1893648 C71.8244141,40.7989483 72.3013535,40.3587119 72.7162395,39.8830266 C73.0126599,39.5433882 73.2260006,39.1251875 73.4065196,38.7151305 C73.9973091,37.3752596 74.8455433,36.1877229 75.8173715,35.0725211 C76.6348355,34.1340845 77.5461488,33.2861862 78.6620845,32.6509811 C79.4287775,32.2145769 80.2436772,31.9151778 81.1590932,31.917573 C82.2606695,31.9209263 82.8232529,32.4172102 82.8519718,33.4495384 C82.8776137,34.3731248 82.6335028,35.2555139 82.2760546,36.1072445 C82.0068146,36.7486771 81.6878293,37.3714273 81.3914089,38.0028001 C81.3565359,38.0765721 81.32474,38.1517811 81.2837129,38.2442356 C82.5509359,38.0942965 83.4637877,37.3259186 84.451001,36.6993361 C84.4771558,36.734306 84.5033105,36.7687967 84.5299781,36.8037666 C84.428949,36.9201729 84.3412537,37.0490343 84.2258651,37.1510695 C83.3632714,37.9127409 82.3883662,38.4780064 81.1955048,38.6734541 C81.0529358,38.696927 80.8949816,38.8027946 80.8042093,38.9134525 C79.9200764,39.9912893 78.9713259,41.0145157 77.7307705,41.7426544 C77.228702,42.0372631 76.6568875,42.2672016 76.0835345,42.4104341 C75.0655509,42.6648036 74.1768024,42.2940278 73.6675542,41.4264889 C73.4213919,41.0063721 73.2972851,40.5239802 73.1367668,40.1172764" id="Fill-4"></path>
                                <path d="M113.483894,31.8566872 L113.483894,31.2042366 C114.375207,31.2042366 115.248057,31.1764524 116.117831,31.2157336 C116.57477,31.2363322 116.815291,31.0854351 117.039914,30.7266352 C118.700996,28.0785099 120.497981,25.5127792 122.541641,23.1065684 C124.209391,21.1425102 126.172022,19.4601267 128.33825,17.9837298 C128.451587,17.9066046 128.56236,17.8270842 128.734161,17.7068455 C127.997726,17.8438505 127.343857,17.9770233 126.685373,18.0862441 C124.721203,18.4119903 122.782162,18.2515124 120.862096,17.7940305 C119.668209,17.5094816 118.476373,17.1842144 117.227613,17.266609 C114.658294,17.4361887 112.542836,18.3569009 111.295101,20.5801189 C110.48533,22.0225041 111.081248,23.7015343 112.67361,24.3650028 C115.080359,25.3676305 117.36095,25.1075126 119.462048,23.5966249 C120.322078,22.977707 121.035948,22.2294488 121.69392,21.4299334 C121.761614,21.3480178 121.833412,21.2689764 121.962647,21.2172402 C121.904183,21.3302934 121.858541,21.4514901 121.785205,21.5554415 C120.482083,23.3906383 118.785102,24.7329044 116.391686,25.0792493 C114.999844,25.2809246 113.615694,25.1348178 112.340778,24.5005707 C110.684311,23.6771034 110.421738,22.0186718 110.891498,20.8354465 C111.567931,19.1324643 112.938235,18.0474419 114.67932,17.340381 C116.239886,16.707092 117.868147,16.5389494 119.545641,16.8052949 C120.670295,16.9834972 121.788795,17.2009808 122.918577,17.34086 C126.2151,17.7485219 129.392132,17.3763089 132.397364,15.9842228 C132.455314,15.9573966 132.514804,15.9334447 132.640449,15.8788343 C127.457707,20.0871882 123.933484,25.2766132 121.376986,31.1625603 C122.298043,31.1625603 123.158072,31.1304647 124.013486,31.1745363 C124.528376,31.2013624 124.804796,31.0126212 125.095062,30.637055 C126.820249,28.4061723 128.518256,26.1532538 130.34396,23.995185 C131.696314,22.3961542 133.189186,20.8953263 134.692827,19.4160552 C135.981589,18.1485191 137.369329,16.9667309 139.037079,16.1250601 C139.385296,15.949732 139.762745,15.8237448 140.137629,15.6996738 C136.520069,18.6773777 129.496239,28.9072466 128.756726,31.1151355 L130.067027,31.1151355 L130.067027,31.7723764 C129.580857,31.7723764 129.102379,31.7608795 128.625439,31.7805201 C128.513641,31.7853104 128.34902,31.8715374 128.305941,31.9611176 C127.150004,34.3400232 125.965348,36.7103061 125.105319,39.2003487 C124.740178,40.259503 124.460168,41.351711 124.251443,42.4472722 C124.157594,42.9402029 124.267854,43.4934925 124.403756,43.9912136 C124.600173,44.7112086 125.438663,45.1361158 126.216639,44.9933623 C127.023333,44.8448603 127.725409,44.480791 128.399791,44.058758 C128.541847,43.9696568 128.694673,43.8949268 128.896218,43.7833108 C128.868012,43.8800766 128.869038,43.9145674 128.851088,43.9318128 C126.979229,45.7444948 124.415039,46.0587441 122.454459,44.3610314 C121.537504,43.5672644 121.116464,42.5224813 120.889789,41.40201 C120.508751,39.5203465 120.883635,37.7277841 121.75546,36.0348617 C122.432919,34.7179847 123.228844,33.4538018 123.972459,32.1666252 C124.028872,32.0679432 124.088361,31.9711774 124.186313,31.8063881 C123.686809,31.8063881 123.255512,31.8030349 122.824215,31.8073462 C122.34266,31.8126156 121.860592,31.8403999 121.37955,31.828903 C121.130823,31.8226755 121.009281,31.8945312 120.903123,32.1105776 C119.744109,34.4775073 118.400473,36.7505454 116.624002,38.7634655 C114.184944,41.526081 111.287409,43.760796 107.641643,45.002464 C105.065144,45.8805417 102.415822,46.019942 99.7567569,45.299947 C98.7690307,45.0326434 97.8756667,44.5742035 97.088973,43.9476211 C97.0125602,43.8867832 96.9397371,43.8206758 96.870504,43.7526523 C96.8412722,43.72391 96.8253742,43.6831918 96.8474263,43.5797194 C96.9771743,43.6506171 97.117692,43.7090598 97.2351319,43.7938497 C98.235679,44.5191141 99.3500762,44.9813863 100.602427,45.1955166 C102.855838,45.5811426 104.886164,45.1346787 106.742125,43.8982801 C108.525263,42.7102644 109.95762,41.2056042 111.261254,39.5826215 C113.048495,37.3574873 114.497263,34.9383424 115.906542,32.4962037 C116.022443,32.2954865 116.141934,32.0966855 116.283478,31.8566872 L113.483894,31.8566872 Z" id="Fill-6"></path>
                                <path d="M38.5725042,14.6813336 C38.3663433,14.5960647 38.1683877,14.5021732 37.9612011,14.4298384 C37.0380926,14.1079244 36.0703671,14.0025359 35.0970003,13.954153 C33.0241087,13.8506807 31.0758367,14.3057674 29.2291067,15.1608512 C26.6500439,16.3550944 24.5479205,18.0887351 22.7909372,20.1989 C21.9914226,21.1593724 21.2734492,22.1687067 20.8467679,23.3346866 C20.7662523,23.5540863 20.7883044,23.724624 20.950874,23.9085748 C22.9678663,26.1883194 23.4842943,28.7803972 22.7858088,31.6273235 C22.0283469,34.7161643 20.3323913,37.2632125 17.7215325,39.2751745 C16.4435399,40.2600778 15.0481075,41.0672579 13.4577965,41.5477336 C13.3121505,41.5918051 13.1567605,41.6080924 13.0054733,41.6368347 C12.993678,41.6037811 12.9823956,41.5707274 12.9706003,41.5376737 C13.0798348,41.4878537 13.1865051,41.4303691 13.2993295,41.3891718 C14.8814351,40.8124093 16.3225101,40.025828 17.5415263,38.909189 C19.6790355,36.9508793 20.9903626,34.5595187 21.7662866,31.8836092 C22.3581018,29.8419467 22.3186133,27.8285475 21.4724304,25.8549086 C21.2437046,25.3222177 20.9293348,24.8221014 20.6549665,24.3066559 C20.6149651,24.3147995 20.5754765,24.3229432 20.5354752,24.3306078 C20.4657292,24.9183882 20.3570075,25.5042523 20.336494,26.0934698 C20.3159805,26.6956213 20.3246987,27.3087907 20.425215,27.9018405 C20.5211157,28.4661479 20.7529185,29.0108148 20.9247193,29.5641043 C20.893949,29.5751222 20.8631787,29.5861401 20.8324084,29.597637 C20.7124043,29.3562016 20.5718867,29.1219517 20.4770116,28.8723726 C19.9139154,27.3983709 19.9508397,25.8870042 20.2472602,24.3804278 C20.3339298,23.9406704 20.2011047,23.6973188 19.8600674,23.4606737 C18.514893,22.5275066 17.0035591,21.9943366 15.3332454,22.0106239 C12.2946797,22.0403243 9.64689653,23.0678621 7.41861496,24.9859326 C5.47136868,26.6620886 4.07542336,28.7186012 2.95230791,30.9403822 C2.31126028,32.2079183 1.71175253,33.4970111 1.59790247,34.9202347 C1.49841188,36.1710045 1.36712533,37.4217742 1.69175185,38.6687117 C2.13227978,40.3640292 2.93589709,41.8629409 4.43338436,42.9450891 C6.88628901,44.7170528 9.72843779,45.129026 12.7064887,44.7553759 C14.8598959,44.4851982 16.7384218,43.5323904 18.4338646,42.2825787 C20.0631513,41.0821081 21.3078094,39.5558911 22.4950296,37.990393 C24.3997103,35.4783147 25.8284773,32.7185734 27.2459618,29.9545208 C28.6490868,27.2196895 30.0650328,24.4925229 31.7850918,21.9138582 C33.6148982,19.1708832 35.8744629,16.7833549 38.5725042,14.6813336 M44.1491057,14.3991799 C42.6003346,13.3141575 40.7643742,13.3601452 39.6566439,14.512233 C42.0172377,16.0255159 43.6321649,17.9938854 43.7388352,20.7646446 C43.8111454,22.6328951 43.1875343,24.3296497 41.9208242,25.7998191 C39.5248445,28.57968 34.9821246,29.1205146 33.2959129,28.1475872 C33.751826,28.2218382 34.271331,28.3502206 34.7985286,28.3842323 C36.8385985,28.5154889 38.4530129,27.7178896 39.7453649,26.2999354 C41.0674615,24.8489276 41.7510747,23.1330114 42.0854452,21.2733836 C42.2998115,20.0805775 42.2695541,18.9150766 41.7290227,17.7989167 C41.2059278,16.7196428 40.4233369,15.8305472 39.4002249,15.1244443 C39.1873971,14.9773795 39.0176476,14.9677987 38.8658476,15.1752224 C38.2283898,16.0451565 37.5283658,16.8820369 36.9724493,17.7955634 C35.3205977,20.5097961 34.0785039,23.4007939 32.8564106,26.3008935 C31.7666297,28.8862647 30.6891568,31.4802587 29.4680893,34.0119776 C27.7675181,37.5377016 25.2551243,40.4713339 21.7242339,42.5728761 C19.3390239,43.9932255 16.7281651,44.8463932 13.937813,45.2444743 C12.458275,45.4557303 10.9792499,45.5520171 9.48689104,45.3709405 C5.81907292,44.9254346 3.04205458,43.2262848 1.30968746,40.1690605 C-0.439603318,37.0826149 -0.354985031,33.8649127 1.07891031,30.7401441 C3.34873176,25.7950288 7.44220552,22.8484624 13.0762449,21.7897872 C15.6824882,21.3002097 18.0759036,21.8458347 20.2487987,23.2633098 C20.3113649,23.3040281 20.377521,23.339956 20.4359846,23.3744468 C20.7021476,22.8235524 20.9149754,22.2587659 21.2303708,21.7490689 C23.4083942,18.2310095 26.3638802,15.4760586 30.4670979,13.99056 C33.2959129,12.9663755 36.1790887,12.9836209 39.0053395,14.14002 C39.1258565,14.189361 39.3340688,14.1591816 39.4515087,14.090679 C40.271024,13.6130776 41.1464386,13.3371513 42.120831,13.3730792 C42.8870111,13.4013425 43.5188277,13.7079272 44.0598719,14.1994208 C44.091155,14.2276841 44.1157712,14.264091 44.1378233,14.3000189 C44.1475672,14.3153481 44.1429517,14.338342 44.1491057,14.3991799" id="Fill-8"></path>
                                <path d="M136.682383,35.7871509 C136.749051,35.813498 136.798284,35.8412822 136.851619,35.8518211 C136.927519,35.8671503 137.006496,35.8709826 137.084448,35.8772101 C138.556293,35.999365 139.732231,35.3972135 140.790216,34.5339859 C141.385621,34.0482408 141.901536,33.4925561 142.141544,32.7692078 C142.37745,32.0568774 141.798968,31.4892167 141.031762,31.6985566 C140.597389,31.8168791 140.158399,31.9816684 139.781463,32.2116069 C138.414237,33.0456131 137.457281,34.2173414 136.75059,35.577811 C136.717768,35.6405651 136.705973,35.7128999 136.682383,35.7871509 M161.845297,38.2163555 C161.632982,38.0970749 161.458104,38.0074947 161.292457,37.9040224 C160.98219,37.7109698 160.756542,37.4589955 160.717566,37.0973214 C160.596536,35.9845148 160.937061,35.0115874 161.767346,34.2044074 C162.058638,33.9212956 162.440702,33.777105 162.868409,33.8671642 C163.050467,33.9054873 163.214062,34.0204566 163.41971,34.1162643 C163.46484,33.727764 163.519201,33.3660899 163.545868,33.0029786 C163.579203,32.5560356 163.495097,32.1296913 163.059698,31.8681362 C162.616605,31.6022698 162.125819,31.6587964 161.726831,31.9193933 C161.237584,32.2398702 160.745259,32.5938797 160.370375,33.0221402 C158.717497,34.9085941 157.658487,37.092052 156.892307,39.4029341 C156.712813,39.9456848 156.60922,40.5224473 156.566654,41.089629 C156.525627,41.6333377 156.917436,41.9389644 157.491301,41.8393243 C157.866699,41.7741751 158.250815,41.6405233 158.575954,41.4536983 C159.961643,40.6575362 160.946805,39.4996999 161.845297,38.2163555 M133.007385,39.9777804 C132.684297,40.3121493 132.414031,40.6479554 132.083763,40.9205283 C131.599644,41.3195675 131.097576,41.7095049 130.556531,42.0357302 C130.045745,42.3432729 129.455468,42.430458 128.844165,42.2862673 C127.720024,42.02088 127.062565,41.002923 127.476939,39.9892773 C127.910287,38.9286859 128.432869,37.8963578 128.970836,36.8769636 C129.851379,35.2079932 130.779616,33.5610586 131.678108,31.9007108 C131.791958,31.6908919 131.902731,31.6104135 132.166843,31.6875387 C132.875585,31.8954414 133.600738,31.853286 134.385381,31.7153229 C133.982803,32.4525633 133.609969,33.1385465 133.235085,33.8240508 C131.911962,36.2446327 130.587814,38.6642566 129.266231,41.0857966 C129.152381,41.2941784 129.04571,41.5236379 129.24982,41.7272293 C129.460596,41.9370482 129.738555,41.9701019 130.025231,41.872378 C130.807309,41.6069906 131.393996,41.0877128 131.960682,40.5492734 C132.51147,40.0261633 132.87097,39.4335926 133.038155,38.681981 C133.407398,37.0254656 134.349482,35.627152 135.566447,34.3897953 C136.857773,33.0767506 138.348594,32.0314884 140.171733,31.4360434 C140.694828,31.2655057 141.223051,31.2372424 141.759993,31.3234693 C142.570277,31.4528098 143.087218,32.101428 143.007728,32.8626203 C142.893878,33.9553073 142.350782,34.8132654 141.355363,35.391465 C139.82967,36.2786445 138.163459,36.5349301 136.358782,36.2839139 C135.570549,37.6180363 135.117713,39.0446132 135.337208,40.6149017 C135.48747,41.6917805 136.371603,41.9729761 137.305481,41.7425585 C138.087046,41.5504641 138.702965,41.0810063 139.261445,40.5626865 C141.574345,38.4175517 143.276455,35.8911022 144.551883,33.1011815 C144.708812,32.7577109 144.7483,32.4827427 144.45906,32.1359188 C143.95853,31.5361625 144.040071,30.7505392 144.560089,30.1675492 C144.757018,29.9467125 145.011386,29.8240786 145.329346,29.8796471 C145.639613,29.9342575 145.705769,30.1809623 145.776541,30.413296 C145.916033,30.8736521 145.824235,31.2999965 145.557559,31.7052631 C145.488838,31.8092145 145.473966,31.9443034 145.434478,32.0650211 C145.581662,32.076518 145.735514,32.1196315 145.87398,32.0937634 C146.26784,32.0195124 146.651955,31.8954414 147.046841,31.8307712 C147.625835,31.7359216 148.142263,31.8566393 148.504839,32.3289713 C148.856646,32.7878903 148.838184,33.2793839 148.56638,33.7507579 C147.564294,35.4901469 146.538105,37.2180391 145.534481,38.9569492 C145.121646,39.6731119 144.677529,40.3811309 144.555473,41.2098676 C144.478547,41.7329778 144.818559,42.0309398 145.33191,41.7990851 C145.793977,41.5902243 146.266814,41.3051963 146.586825,40.9401689 C147.3448,40.0769414 148.055593,39.1720375 148.711,38.2379123 C149.841808,36.6269055 150.829534,34.9421268 151.476736,33.0978283 C151.609561,32.7193878 151.602382,32.4338808 151.324423,32.0975957 C150.784918,31.4446661 150.875177,30.6647913 151.498788,30.077969 C151.620331,29.9629998 151.784439,29.8724615 151.946496,29.8130607 C152.291123,29.6880316 152.547542,29.8092284 152.643443,30.1455135 C152.795243,30.6767673 152.801397,31.1974822 152.467539,31.6880177 C152.40446,31.7799931 152.411127,31.9136449 152.385998,32.0281351 C152.520875,32.0410691 152.661392,32.0822665 152.790627,32.0621468 C153.338338,31.9783151 153.880921,31.8092145 154.428632,31.7967595 C155.137887,31.7809512 155.519439,32.1991519 155.56303,32.8664526 C155.612263,33.6257288 155.270712,34.2848859 154.88711,34.9061989 C153.98195,36.3734941 153.023456,37.812526 152.095732,39.2683243 C151.798798,39.7349078 151.513661,40.2101141 151.255703,40.6963383 C151.07262,41.040288 150.931589,41.4565725 151.268011,41.7526184 C151.621869,42.0639934 152.069577,41.8527374 152.376767,41.6347749 C153.0332,41.1686703 153.637323,40.6383746 154.257344,40.1286776 C154.308628,40.0865222 154.342475,40.0022114 154.346065,39.936104 C154.439915,38.3054567 155.156862,36.8851073 156.064073,35.5356556 C157.014362,34.1210547 158.164658,32.8722011 159.670351,31.9438243 C160.398068,31.4949652 161.178095,31.1629914 162.072997,31.1423928 C163.263807,31.1146085 163.927933,31.6932871 163.936138,32.8099261 C163.944343,33.9394991 163.683309,35.031228 163.306373,36.0980469 C163.118674,36.6288217 162.88841,37.1471414 162.667376,37.6961196 C163.354067,37.6218686 163.947933,37.3641459 164.495131,37.0158848 C165.021816,36.6805578 165.525423,36.3131352 166.038774,35.9600838 C166.068519,35.9921794 166.098263,36.0237959 166.128008,36.0558915 C165.985952,36.2058306 165.858768,36.3710989 165.700301,36.5042716 C164.774115,37.2807932 163.776645,37.9404293 162.520705,38.1775534 C162.404291,38.1995892 162.286338,38.3231811 162.215053,38.4271325 C161.479643,39.5001789 160.650897,40.4970582 159.586245,41.3061544 C159.0252,41.7320197 158.413897,42.0750113 157.708745,42.2532137 C156.586142,42.5368045 155.674829,42.2498604 154.985574,41.3746569 C154.781465,41.115018 154.618382,40.8271158 154.438889,40.55598 C153.964001,40.9459174 153.49578,41.351184 153.003455,41.7291455 C152.564979,42.0663886 152.060859,42.29489 151.48648,42.3480633 C150.367467,42.4510566 149.649494,41.8992042 149.48436,40.8596904 C149.33974,39.948559 149.604364,39.116469 149.997711,38.309289 C150.732095,36.8036707 151.790593,35.4882308 152.831654,34.1636891 C153.130126,33.7842906 153.449624,33.417347 153.719377,33.020703 C153.81015,32.8880094 153.825022,32.6676516 153.775789,32.5153173 C153.755789,32.4540004 153.467574,32.4415454 153.305517,32.4530423 C152.88499,32.4837008 152.466514,32.5397483 152.044448,32.5862151 C151.059799,35.2032028 149.661289,37.6563594 147.94123,39.9519123 C147.355569,40.7341823 146.707855,41.4699856 145.873467,42.0419577 C145.164725,42.5281818 144.417007,42.5722534 143.630313,42.2287827 C143.192349,42.0371673 142.9467,41.710463 142.829773,41.2793282 C142.591303,40.3993344 142.774899,39.5571845 143.080038,38.7260526 C143.625698,37.2424701 144.566243,35.9672694 145.527814,34.7045237 C145.94988,34.150276 146.383228,33.603214 146.809397,33.0518406 C146.937093,32.8865722 147.083765,32.6791485 146.890938,32.5205868 C146.774011,32.4243 146.529387,32.4329227 146.345791,32.4448987 C145.948854,32.4707668 145.554482,32.5296885 145.111902,32.5799876 C144.709325,33.8068054 144.022121,34.9785337 143.29543,36.1296635 C142.256933,37.77564 141.108175,39.3511979 139.619919,40.6762187 C139.120928,41.1207665 138.57014,41.5360929 137.97935,41.8651924 C136.198263,42.8568023 134.030497,42.1655496 133.192519,40.3806519 C133.135594,40.2599341 133.081233,40.1382583 133.007385,39.9777804" id="Fill-11"></path>
                                <path d="M102.134685,35.9454731 C102.335717,36.0034368 102.418797,36.0379276 102.505467,36.0494245 C102.615727,36.0642747 102.729064,36.0661908 102.84035,36.0633166 C104.390659,36.0235564 105.640446,35.3782914 106.646121,34.3253646 C107.001005,33.9541097 107.293836,33.4932746 107.476919,33.025733 C107.688208,32.4877726 107.194345,32.0216681 106.583042,32.1227452 C106.224056,32.182146 105.860966,32.2784328 105.531211,32.4211863 C104.634258,32.8087285 103.962952,33.4592629 103.386522,34.1869225 C102.951123,34.7359007 102.573161,35.3251182 102.134685,35.9454731 M96.4698749,33.3318386 C96.4811573,32.3325641 95.9954996,31.8683757 95.1544451,31.92107 C94.8544348,31.9397525 94.5190387,32.0283746 94.277492,32.1878945 C93.7415762,32.541904 93.2092502,32.9203445 92.756927,33.361539 C91.4071371,34.677458 90.3655629,36.2031959 89.4721989,37.8156398 C88.9691047,38.7243759 88.4829342,39.6503575 88.347545,40.6836438 C88.2357463,41.5363324 88.7916628,42.1906991 89.7516957,41.9770479 C90.0214485,41.9171681 90.2927399,41.8443542 90.5455691,41.7389658 C91.3040566,41.4237584 91.9276678,40.9308277 92.4974309,40.3775381 C94.2636453,38.66258 95.4134284,36.614211 96.1847369,34.367041 C96.3242289,33.9622534 96.4129498,33.5421365 96.4698749,33.3318386 M97.0247657,33.1445345 C97.6632491,32.008255 98.2663468,30.9366457 98.867393,29.8635993 C99.7653725,28.2616942 100.662326,26.6593102 101.558255,25.0564471 C101.637232,24.9156097 101.695182,24.7805208 101.925447,24.8183649 C102.651113,24.9386036 103.374727,24.906508 104.093726,24.7565689 C104.157318,24.7431558 104.225526,24.7489043 104.334247,24.7436349 C104.292194,24.8404007 104.267578,24.9132145 104.230654,24.9798009 C101.451071,29.9915026 98.6704632,35.0027252 95.8908807,40.0144269 C95.6595907,40.4316695 95.4098385,40.8431636 95.2216269,41.2776516 C95.1441884,41.456333 95.1339316,41.7231575 95.2241911,41.8879468 C95.351375,42.1202805 95.6421542,42.0455505 95.8616489,41.965551 C96.8729656,41.5981284 97.6735059,40.9787315 98.2755778,40.1394559 C98.3519907,40.0321513 98.4084029,39.8841284 98.401736,39.7581412 C98.3181434,38.2453374 99.0038079,36.998879 99.941276,35.8391266 C101.039775,34.4800941 102.326999,33.3155513 103.937311,32.4872936 C104.870676,32.0068179 105.84712,31.7706519 106.931772,31.8405915 C107.87283,31.9014294 108.717987,32.8221416 108.329256,33.7557878 C107.859496,34.8834446 106.985107,35.6173317 105.854812,36.1121786 C104.696311,36.6194804 103.473705,36.751216 102.216226,36.51505 C101.964935,36.4676252 101.830572,36.5246308 101.713644,36.738282 C101.10747,37.8491725 100.659249,38.9998231 100.651044,40.264964 C100.649505,40.4623279 100.67207,40.6644822 100.719764,40.8560976 C100.938746,41.7303431 101.64595,42.1092626 102.702396,41.9497427 C103.782433,41.7873487 104.667592,41.2771726 105.473261,40.6228059 C106.453294,39.8256857 107.233834,38.8685666 107.977962,37.8827052 C108.078991,37.7485744 108.186174,37.6187549 108.290793,37.4870193 C108.315922,37.4994743 108.341051,37.5119293 108.366693,37.5243843 C108.322076,37.6225872 108.287716,37.7260595 108.23233,37.8180349 C107.343581,39.2973061 106.221491,40.5911893 104.719901,41.5641167 C103.563964,42.312854 102.265458,42.586385 100.886949,42.3372849 C99.9043517,42.1600407 99.2109945,41.5339372 98.6191794,40.8115471 C98.5796908,40.7626851 98.5427665,40.711428 98.4930212,40.6472368 C98.1412143,40.9384923 97.8155621,41.2402866 97.4540112,41.4975303 C97.1088712,41.7437561 96.7360378,41.9607606 96.3575633,42.1609987 C94.9287964,42.9145264 93.1154008,41.9895029 93.0784765,40.5111899 C92.7353878,40.7875951 92.4189667,41.0630423 92.0804935,41.3111843 C91.4445743,41.7777679 90.7932699,42.2611178 89.9701647,42.3574046 C89.300911,42.4359669 88.5983228,42.4718948 87.9377873,42.3708176 C86.6351785,42.1710586 85.8582288,40.9954979 86.0525944,39.6996985 C86.2136256,38.6290473 86.6997961,37.681509 87.3172532,36.7895391 C88.6203748,34.9054804 90.2588926,33.336629 92.3712727,32.2372354 C93.2395076,31.7855021 94.1580007,31.4640672 95.1754715,31.4702947 C96.0585787,31.4750851 96.5980844,31.8386753 96.8724528,32.6305261 C96.9242494,32.7790281 96.9621995,32.9318414 97.0247657,33.1445345" id="Fill-13"></path>
                                <path d="M25.6977548,5.30908743 C26.4234207,5.62237867 27.1362657,5.55866653 27.9306519,5.33830879 C27.794237,5.57351673 27.6926951,5.73926408 27.5993585,5.90932278 C25.7151913,9.35265212 23.8310241,12.7959815 21.949934,16.2402689 C21.8237758,16.4716445 21.683771,16.7044573 21.614025,16.9525993 C21.5027391,17.3497222 21.8222373,17.6304388 22.2043017,17.4397815 C22.7114985,17.1868491 23.2274137,16.8970308 23.6264017,16.5185903 C24.4828414,15.708057 25.266458,14.8304583 26.0803321,13.9801648 C26.2059774,13.8484292 26.3341869,13.7186098 26.5070134,13.6156165 C26.4654735,13.6941788 26.4331647,13.7784896 26.3818809,13.8508244 C25.4208222,15.199318 24.3346311,16.4467345 22.9792,17.4699609 C22.5499545,17.793791 22.0899388,18.104208 21.5206885,18.1334294 C20.2596196,18.1985786 19.5539543,17.458943 19.8134504,16.2091314 C19.9657633,15.4766814 20.3452635,14.7677043 20.7201482,14.0951341 C22.2694321,11.3138361 23.8561532,8.55074153 25.4290277,5.7804614 C25.5126203,5.63387559 25.5967257,5.48681075 25.6977548,5.30908743" id="Fill-15"></path>
                                <path d="M132.863123,30.2326985 C132.872867,29.3148606 134.104192,28.563249 135.000633,28.9464799 C135.14833,29.009713 135.300643,29.1855201 135.335516,29.333064 C135.461674,29.8715034 135.189357,30.2944945 134.76165,30.6188036 C134.320609,30.9526935 133.810335,31.0801177 133.258009,30.8645504 C132.976461,30.7543715 132.859533,30.5459897 132.863123,30.2326985" id="Fill-17"></path>
                                <path d="M74.7723613,29.1302391 C75.546234,29.1278439 75.844193,29.5565834 75.537003,30.2301117 C75.2380183,30.8859155 74.6164586,31.2624398 73.9072035,31.2174102 C73.300516,31.1786081 73.0081983,30.8035209 73.1533314,30.2507103 C73.3312863,29.5752659 73.9713082,29.1326343 74.7723613,29.1302391" id="Fill-19"></path>
                            </g>
                        </g>
                    </g>
                </g>
            </g>
        </g>
    </g>
</svg>