<?xml version="1.0" encoding="utf-8"?>
<!-- Generator: Adobe Illustrator 20.0.0, SVG Export Plug-In . SVG Version: 6.00 Build 0)  -->
<svg version="1.1" id="Capa_1" xmlns="http://www.w3.org/2000/svg" xmlns:xlink="http://www.w3.org/1999/xlink" x="0px" y="0px"
	 viewBox="0 0 99 99" style="enable-background:new 0 0 99 99;" xml:space="preserve">
<style type="text/css">
	.st0{fill:#FFFFFF;}
	.st1{fill:#252525;}
</style>
<title>sprite-logos</title>
<desc>Created with Sketch.</desc>
<g id="Page-1">
	<g id="sprite-logos">
		<path id="Fill-1" class="st0" d="M73.7,24.7c0.4-0.8,0.8-1.6,1.2-2.4c0,0,0-0.1,0-0.1C73.8,22.5,73.1,23.9,73.7,24.7 M76.8,21.7
			c0.5,0.1,0.9,0.2,1.3,0.2c0.3,0,0.6,0,0.9-0.1c1.3-0.6,1.8-1.7,2.1-2.9c0.3-1.1-0.1-2.1-0.9-2.8c-0.2-0.2-0.4-0.2-0.6,0.1
			c-0.4,0.7-0.9,1.5-1.3,2.2C77.7,19.4,77.3,20.5,76.8,21.7 M71.9,22.4c0-0.1-0.1-0.2-0.1-0.4c-0.2-0.6-0.2-1.3-0.1-1.9
			c0.1-0.3,0-0.3-0.3-0.5c-0.9-0.6-1.9-0.7-2.9-0.4c-1.3,0.3-2.4,1.1-3.2,2.2c-1,1.5-1.9,3-1.7,4.9c0.1,1.1,0.6,2,1.6,2.6
			c1.7,1,3.9,0.9,5.6-0.4c1.2-0.9,2-2.1,2.7-3.4c0-0.1,0-0.2,0-0.3c-0.3-0.6-0.2-1.1,0.1-1.6c0.3-0.4,0.7-0.8,1.2-1
			c0.1-0.1,0.1,0,0.2-0.2c0.7-1.3,1.4-2.7,2.2-3.8c0.6-0.8,1.5-1.7,2.3-2.5c-0.7-0.2-1.5-0.4-2.3-0.2c-2.4,0.5-4,2-5.2,4.1
			c-0.1,0.2-0.1,0.4,0.1,0.6c0.7,1,0.9,2,0.7,3.2c-0.4,1.8-1.3,3.1-2.8,4.1c-0.4,0.3-0.9,0.5-1.3,0.7c0,0,0-0.1,0-0.1
			c0,0,0-0.1,0.1-0.1c2.5-0.8,4-4,3.8-6c-0.1-0.7-0.3-1.3-0.8-1.9C71.6,20.9,71.6,21.6,71.9,22.4 M81,34.1c-0.9,1.1-2.5,0.9-3.1-0.3
			c-0.4-0.9-0.5-2-0.1-3c0.3-0.7,0.6-1.3,1-2c0,0,0.2-0.3,0.2-0.4c-0.4,0-1.4,0-1.4,0s-0.1,0.2-0.2,0.4C77,30,76.5,31.1,75.6,32
			c-1.2,1.3-2.6,2.4-4.4,2.8c-1,0.2-2,0.2-2.9-0.1c-0.2-0.1-0.9-0.4-1-0.7c1.1,0.8,1.4,0.7,1.9,0.8c1,0.2,1.9-0.2,2.7-0.8
			c0.9-0.7,1.6-1.6,2.2-2.6c0.6-0.9,1-1.8,1.6-2.8c-0.4,0-1.2,0-1.2,0s0,0,0-0.1c0-0.1,0-0.1,0-0.1l1.4,0c0,0,0.1-0.2,0.2-0.4
			c0.8-1.4,1.3-2.2,2.3-3.3c0.6-0.8,1.4-1.4,2.1-2c0,0,0.5-0.3,0.5-0.4c-1.4,0.4-2.8,0.2-4.2-0.2c-0.5,1.2-1.1,2.3-1.6,3.5
			c0.7,0.1,1.6-0.1,2.9-1.7c-0.1,0.4-0.7,1-1.4,1.4c-0.8,0.5-1.6,0.3-1.6,0.3s-0.3,0.5-0.4,0.7c-1.4,2-3.4,3.1-5.8,3.5
			c-1.3,0.2-2.5,0.1-3.6-0.6c-1.5-0.9-2.3-2.8-2.2-4.5c0.3-2.7,2.5-5,5.2-5.6c1.3-0.3,2.5-0.1,3.5,0.7c0.8-1.8,2-3.2,3.8-4.1
			c1.3-0.7,2.7-0.8,4.1-0.2c0.1,0,0.3,0,0.5-0.1c0.4-0.2,1.2-0.5,1.8,0.2c-0.3-0.2-1-0.7-1.9,0.1c1.2,0.9,2,2,1.7,3.6
			c-0.3,1.5-1.3,2.4-2.7,2.8c1.2,0.1,2.4-0.1,3.6-0.6c-2,1.9-3.6,4.3-4.7,6.9c0.5,0,1.4,0,1.4,0s0.1-0.2,0.2-0.3
			c1-1.5,2.1-2.9,3.3-4.3c0.8-0.8,1.6-1.6,2.5-2.2c0.2-0.1,0.3-0.2,0.6-0.3c-2.3,2.6-3.6,4.5-4.9,7.1c0.2,0,0.4,0,0.6,0
			c0,0.2,0,0.3,0,0.3s-0.5,0-0.8,0c-0.6,1.3-1.4,3.1-1.7,4.5c-0.1,0.3-0.1,0.8,0,1.1c0.1,0.4,0.5,0.6,0.9,0.5
			C80.4,34.5,80.8,34.3,81,34.1"/>
		<path id="Fill-1_1_" class="st1" d="M24.7,24.7c0.4-0.8,0.8-1.6,1.2-2.4c0,0,0-0.1,0-0.1C24.8,22.5,24.1,23.9,24.7,24.7
			 M27.8,21.7c0.5,0.1,0.9,0.2,1.3,0.2c0.3,0,0.6,0,0.9-0.1c1.3-0.6,1.8-1.7,2.1-2.9c0.3-1.1-0.1-2.1-0.9-2.8
			c-0.2-0.2-0.4-0.2-0.6,0.1c-0.4,0.7-0.9,1.5-1.3,2.2C28.7,19.4,28.3,20.5,27.8,21.7 M22.9,22.4c0-0.1-0.1-0.2-0.1-0.4
			c-0.2-0.6-0.2-1.3-0.1-1.9c0.1-0.3,0-0.3-0.3-0.5c-0.9-0.6-1.9-0.7-2.9-0.4c-1.3,0.3-2.4,1.1-3.2,2.2c-1,1.5-1.9,3-1.7,4.9
			c0.1,1.1,0.6,2,1.6,2.6c1.7,1,3.9,0.9,5.6-0.4c1.2-0.9,2-2.1,2.7-3.4c0-0.1,0-0.2,0-0.3c-0.3-0.6-0.2-1.1,0.1-1.6
			c0.3-0.4,0.7-0.8,1.2-1c0.1-0.1,0.1,0,0.2-0.2c0.7-1.3,1.4-2.7,2.2-3.8c0.6-0.8,1.5-1.7,2.3-2.5c-0.7-0.2-1.5-0.4-2.3-0.2
			c-2.4,0.5-4,2-5.2,4.1c-0.1,0.2-0.1,0.4,0.1,0.6c0.7,1,0.9,2,0.7,3.2c-0.4,1.8-1.3,3.1-2.8,4.1c-0.4,0.3-0.9,0.5-1.3,0.7
			c0,0,0-0.1,0-0.1c0,0,0-0.1,0.1-0.1c2.5-0.8,4-4,3.8-6c-0.1-0.7-0.3-1.3-0.8-1.9C22.6,20.9,22.6,21.6,22.9,22.4 M32,34.1
			c-0.9,1.1-2.5,0.9-3.1-0.3c-0.4-0.9-0.5-2-0.1-3c0.3-0.7,0.6-1.3,1-2c0,0,0.2-0.3,0.2-0.4c-0.4,0-1.4,0-1.4,0s-0.1,0.2-0.2,0.4
			C28,30,27.5,31.1,26.6,32c-1.2,1.3-2.6,2.4-4.4,2.8c-1,0.2-2,0.2-2.9-0.1c-0.2-0.1-0.9-0.4-1-0.7c1.1,0.8,1.4,0.7,1.9,0.8
			c1,0.2,1.9-0.2,2.7-0.8c0.9-0.7,1.6-1.6,2.2-2.6c0.6-0.9,1-1.8,1.6-2.8c-0.4,0-1.2,0-1.2,0s0,0,0-0.1c0-0.1,0-0.1,0-0.1l1.4,0
			c0,0,0.1-0.2,0.2-0.4c0.8-1.4,1.3-2.2,2.3-3.3c0.6-0.8,1.4-1.4,2.1-2c0,0,0.5-0.3,0.5-0.4c-1.4,0.4-2.8,0.2-4.2-0.2
			c-0.5,1.2-1.1,2.3-1.6,3.5c0.7,0.1,1.6-0.1,2.9-1.7c-0.1,0.4-0.7,1-1.4,1.4c-0.8,0.5-1.6,0.3-1.6,0.3s-0.3,0.5-0.4,0.7
			c-1.4,2-3.4,3.1-5.8,3.5c-1.3,0.2-2.5,0.1-3.6-0.6c-1.5-0.9-2.3-2.8-2.2-4.5c0.3-2.7,2.5-5,5.2-5.6c1.3-0.3,2.5-0.1,3.5,0.7
			c0.8-1.8,2-3.2,3.8-4.1c1.3-0.7,2.7-0.8,4.1-0.2c0.1,0,0.3,0,0.5-0.1c0.4-0.2,1.2-0.5,1.8,0.2c-0.3-0.2-1-0.7-1.9,0.1
			c1.2,0.9,2,2,1.7,3.6c-0.3,1.5-1.3,2.4-2.7,2.8c1.2,0.1,2.4-0.1,3.6-0.6c-2,1.9-3.6,4.3-4.7,6.9c0.5,0,1.4,0,1.4,0
			s0.1-0.2,0.2-0.3c1-1.5,2.1-2.9,3.3-4.3c0.8-0.8,1.6-1.6,2.5-2.2c0.2-0.1,0.3-0.2,0.6-0.3c-2.3,2.6-3.6,4.5-4.9,7.1
			c0.2,0,0.4,0,0.6,0c0,0.2,0,0.3,0,0.3s-0.5,0-0.8,0c-0.6,1.3-1.4,3.1-1.7,4.5c-0.1,0.3-0.1,0.8,0,1.1c0.1,0.4,0.5,0.6,0.9,0.5
			C31.4,34.5,31.8,34.3,32,34.1"/>
	</g>
	<g id="Group-24" transform="translate(62.000000, 63.000000)">
		<polygon id="Fill-1_2_" class="st0" points="12.5,20.5 13.4,20.5 13.4,0 12.5,0 		"/>
		<path id="Fill-2" class="st0" d="M19.5,8.8c0.9,0,1.8,0,2.6,0c0.4,0,0.7-0.3,0.7-0.7c0-0.4-0.2-0.8-0.6-0.8c-0.9,0-1.8,0-2.7,0
			V8.8z M17.7,6.3c0.2,0,0.3,0,0.4,0c1.4,0,2.7,0,4.1,0c0.4,0,0.8,0.2,1.2,0.4c0.4,0.2,0.6,0.6,0.6,1c0,0.3,0,0.7,0,1
			c-0.1,0.7-0.8,1-1.7,1.1c-0.8,0.1-1.6,0-2.3,0h-0.5c0,0.7,0,1.4,0,2.1c0,0.1,0.2,0.2,0.3,0.4h-2l0-0.1c0.1-0.1,0.3-0.1,0.4-0.2
			V8.6c0-0.5,0-1,0-1.6C18.2,6.5,18.2,6.5,17.7,6.3L17.7,6.3z"/>
		<path id="Fill-4" class="st0" d="M6,10.8c0.2,0.3,0.4,0.7,0.7,1.2c-0.7,0.3-1.4,0.6-2.2,0.8c-1.5,0.3-2.9,0.1-4-1.2
			c-1-1.1-0.7-3.3,0.6-4.1c1-0.7,2.1-0.9,3.2-0.7C4.9,6.9,5.5,7.1,6,7.2c0.1,0,0.3,0,0.5,0C6.3,7.7,6,8.2,5.7,8.7
			C5.5,8.1,5.1,8,4.7,7.9C3.8,7.6,3,7.6,2.1,8.1c-0.6,0.4-0.9,1-0.9,1.7c0,0.7,0.3,1.3,1,1.7c1.1,0.6,2.2,0.4,3.2-0.2
			C5.7,11.2,5.8,11,6,10.8"/>
	</g>
	<g id="Group-24_1_" transform="translate(13.000000, 64.000000)">
		<polygon id="Fill-1_3_" class="st1" points="12.5,20.5 13.4,20.5 13.4,0 12.5,0 		"/>
		<path id="Fill-2_1_" class="st1" d="M19.5,8.8c0.9,0,1.8,0,2.6,0c0.4,0,0.7-0.3,0.7-0.7c0-0.4-0.2-0.8-0.6-0.8c-0.9,0-1.8,0-2.7,0
			V8.8z M17.7,6.3c0.2,0,0.3,0,0.4,0c1.4,0,2.7,0,4.1,0c0.4,0,0.8,0.2,1.2,0.4c0.4,0.2,0.6,0.6,0.6,1c0,0.3,0,0.7,0,1
			c-0.1,0.7-0.8,1-1.7,1.1c-0.8,0.1-1.6,0-2.3,0h-0.5c0,0.7,0,1.4,0,2.1c0,0.1,0.2,0.2,0.3,0.4h-2l0-0.1c0.1-0.1,0.3-0.1,0.4-0.2
			V8.6c0-0.5,0-1,0-1.6C18.2,6.5,18.2,6.5,17.7,6.3L17.7,6.3z"/>
		<path id="Fill-4_1_" class="st1" d="M6,10.8c0.2,0.3,0.4,0.7,0.7,1.2c-0.7,0.3-1.4,0.6-2.2,0.8c-1.5,0.3-2.9,0.1-4-1.2
			c-1-1.1-0.7-3.3,0.6-4.1c1-0.7,2.1-0.9,3.2-0.7C4.9,6.9,5.5,7.1,6,7.2c0.1,0,0.3,0,0.5,0C6.3,7.7,6,8.2,5.7,8.7
			C5.5,8.1,5.1,8,4.7,7.9C3.8,7.6,3,7.6,2.1,8.1c-0.6,0.4-0.9,1-0.9,1.7c0,0.7,0.3,1.3,1,1.7c1.1,0.6,2.2,0.4,3.2-0.2
			C5.7,11.2,5.8,11,6,10.8"/>
	</g>
</g>
</svg>
