<svg id="Capa_1" data-name="Capa 1" xmlns="http://www.w3.org/2000/svg" viewBox="0 0 123.93 20.5"><defs><style>.cls-1{fill:#252525;}.cls-2{fill:#fff;}</style></defs><title>sprite-logos-</title><g id="Page-1"><g id="sprite-logos"><g id="Group-24"><polygon id="Fill-1" class="cls-1" points="12.5 20.5 13.38 20.5 13.38 0 12.5 0 12.5 20.5"/><path id="Fill-2" class="cls-1" d="M32.47,23.78c.9,0,1.75,0,2.61,0a.71.71,0,0,0,.72-.69.69.69,0,0,0-.63-.77c-.89,0-1.79,0-2.71,0Zm-1.76-2.49.41,0c1.35,0,2.71,0,4.06,0a3.35,3.35,0,0,1,1.22.38,1.05,1.05,0,0,1,.57,1,4.56,4.56,0,0,1,0,1c-.14.69-.81,1-1.68,1.11s-1.55,0-2.33,0h-.46c0,.72,0,1.4,0,2.07,0,.12.17.24.3.41h-2l0-.08.43-.2V23.6q0-.78,0-1.57c0-.51,0-.51-.46-.75Z" transform="translate(-13 -15)"/><path id="Fill-4" class="cls-1" d="M19,25.79l.7,1.16a15.72,15.72,0,0,1-2.16.79,3.76,3.76,0,0,1-4-1.17,3,3,0,0,1,.57-4.12,4.15,4.15,0,0,1,3.2-.68c.57.1,1.13.29,1.7.43a3.31,3.31,0,0,0,.54,0l-.91,1.46c-.14-.59-.56-.68-1-.81a2.88,2.88,0,0,0-2.59.2,2,2,0,0,0,.09,3.44,3.11,3.11,0,0,0,3.24-.18,2.93,2.93,0,0,0,.54-.55" transform="translate(-13 -15)"/></g><path id="Fill-1-2" data-name="Fill-1" class="cls-2" d="M74.65,24.74l1.19-2.39a.35.35,0,0,0,0-.1,1.79,1.79,0,0,0-1.2,2.49m3.14-3.09c.47.08.88.18,1.29.21a2,2,0,0,0,.9-.1A3.75,3.75,0,0,0,82,18.82,2.79,2.79,0,0,0,81.1,16c-.23-.21-.42-.22-.58.06-.43.74-.9,1.46-1.26,2.22-.52,1.1-1,2.24-1.46,3.39m-4.92.74c0-.13-.11-.25-.15-.38a3.85,3.85,0,0,1-.1-1.92c.08-.34,0-.34-.27-.54a3.52,3.52,0,0,0-2.9-.42,5.4,5.4,0,0,0-3.16,2.2,7,7,0,0,0-1.67,4.87,3.31,3.31,0,0,0,1.57,2.64,4.91,4.91,0,0,0,5.55-.42A10.86,10.86,0,0,0,74.48,25a.35.35,0,0,0,0-.28,1.56,1.56,0,0,1,.15-1.64,3.23,3.23,0,0,1,1.16-1c.15-.08.13,0,.2-.16a35.92,35.92,0,0,1,2.17-3.84,15.63,15.63,0,0,1,2.31-2.45,4.76,4.76,0,0,0-2.33-.25A7.24,7.24,0,0,0,73,19.43a.49.49,0,0,0,.08.6,3.82,3.82,0,0,1,.72,3.21A6.25,6.25,0,0,1,71,27.36a13.19,13.19,0,0,1-1.32.68l0-.09s0-.06.08-.07c2.5-.81,4-4,3.79-6A4,4,0,0,0,72.73,20a4.72,4.72,0,0,0,.14,2.36M82,34.14a1.85,1.85,0,0,1-3.1-.26,3.67,3.67,0,0,1-.08-3c.3-.73.64-1.25,1-2,0,0,.18-.27.23-.36H78.72s-.13.23-.19.35A12.42,12.42,0,0,1,76.64,32a8.31,8.31,0,0,1-4.41,2.82,5.15,5.15,0,0,1-2.95-.14c-.16-.06-.89-.43-1-.71a3.38,3.38,0,0,0,1.86.76,3.46,3.46,0,0,0,2.74-.82A9.9,9.9,0,0,0,75,31.35c.56-.87,1-1.81,1.62-2.79H75.51s0,0,0-.1a.3.3,0,0,0,0-.12h1.37s.12-.23.23-.43a24,24,0,0,1,2.25-3.34,19.8,19.8,0,0,1,2.13-2,4.15,4.15,0,0,0,.5-.39,7.42,7.42,0,0,1-4.2-.23c-.51,1.18-1.12,2.31-1.63,3.47.68.11,1.63-.08,2.94-1.66a3.43,3.43,0,0,1-1.44,1.44,2.52,2.52,0,0,1-1.6.35s-.27.52-.41.71a8.23,8.23,0,0,1-5.84,3.46,5.41,5.41,0,0,1-3.6-.59A4.71,4.71,0,0,1,64,24.59,6.82,6.82,0,0,1,69.22,19a4.08,4.08,0,0,1,3.53.67,7.92,7.92,0,0,1,3.77-4.07,4.87,4.87,0,0,1,4.11-.22.68.68,0,0,0,.47-.07,1.33,1.33,0,0,1,1.8.19,1.32,1.32,0,0,0-1.88.07A3.47,3.47,0,0,1,80,22a6.77,6.77,0,0,0,3.6-.63,19.46,19.46,0,0,0-4.69,6.95h1.37l.21-.3a38,38,0,0,1,3.33-4.29,12.19,12.19,0,0,1,2.55-2.21c.15-.09.32-.16.58-.28A30.49,30.49,0,0,0,82,28.28c.24,0,.4,0,.56,0,0,.17,0,.28,0,.28h-.76a27,27,0,0,0-1.7,4.51,3.07,3.07,0,0,0,0,1.09.71.71,0,0,0,.91.46,4.88,4.88,0,0,0,1-.48" transform="translate(-13 -15)"/><path id="Fill-1-3" data-name="Fill-1" class="cls-1" d="M124.65,24.74l1.19-2.39a.35.35,0,0,0,0-.1,1.79,1.79,0,0,0-1.2,2.49m3.14-3.09c.47.08.88.18,1.29.21a2,2,0,0,0,.9-.1A3.75,3.75,0,0,0,132,18.82,2.79,2.79,0,0,0,131.1,16c-.23-.21-.42-.22-.58.06-.43.74-.9,1.46-1.26,2.22-.52,1.1-1,2.24-1.46,3.39m-4.92.74c0-.13-.11-.25-.15-.38a3.85,3.85,0,0,1-.1-1.92c.08-.34,0-.34-.27-.54a3.52,3.52,0,0,0-2.9-.42,5.4,5.4,0,0,0-3.16,2.2,7,7,0,0,0-1.67,4.87,3.31,3.31,0,0,0,1.57,2.64,4.91,4.91,0,0,0,5.55-.42A10.86,10.86,0,0,0,124.48,25a.35.35,0,0,0,0-.28,1.56,1.56,0,0,1,.15-1.64,3.23,3.23,0,0,1,1.16-1c.15-.08.13,0,.2-.16a35.92,35.92,0,0,1,2.17-3.84,15.63,15.63,0,0,1,2.31-2.45,4.76,4.76,0,0,0-2.33-.25A7.24,7.24,0,0,0,123,19.43a.49.49,0,0,0,.08.6,3.82,3.82,0,0,1,.72,3.21A6.25,6.25,0,0,1,121,27.36a13.19,13.19,0,0,1-1.32.68l0-.09s0-.06.08-.07c2.5-.81,4-4,3.79-6a4,4,0,0,0-.76-1.89,4.72,4.72,0,0,0,.14,2.36M132,34.14a1.85,1.85,0,0,1-3.1-.26,3.67,3.67,0,0,1-.08-3c.3-.73.64-1.25,1-2,0,0,.18-.27.23-.36h-1.37s-.13.23-.19.35A12.42,12.42,0,0,1,126.64,32a8.31,8.31,0,0,1-4.41,2.82,5.15,5.15,0,0,1-2.95-.14c-.16-.06-.89-.43-1-.71a3.38,3.38,0,0,0,1.86.76,3.46,3.46,0,0,0,2.74-.82A9.9,9.9,0,0,0,125,31.35c.56-.87,1-1.81,1.62-2.79h-1.15s0,0,0-.1a.3.3,0,0,0,0-.12h1.37s.12-.23.23-.43a24,24,0,0,1,2.25-3.34,19.8,19.8,0,0,1,2.13-2,4.15,4.15,0,0,0,.5-.39,7.42,7.42,0,0,1-4.2-.23c-.51,1.18-1.12,2.31-1.63,3.47.68.11,1.63-.08,2.94-1.66a3.43,3.43,0,0,1-1.44,1.44,2.52,2.52,0,0,1-1.6.35s-.27.52-.41.71a8.23,8.23,0,0,1-5.84,3.46,5.41,5.41,0,0,1-3.6-.59A4.71,4.71,0,0,1,114,24.59,6.82,6.82,0,0,1,119.22,19a4.08,4.08,0,0,1,3.53.67,7.92,7.92,0,0,1,3.77-4.07,4.87,4.87,0,0,1,4.11-.22.68.68,0,0,0,.47-.07,1.33,1.33,0,0,1,1.8.19,1.32,1.32,0,0,0-1.88.07A3.47,3.47,0,0,1,130,22a6.77,6.77,0,0,0,3.6-.63,19.45,19.45,0,0,0-4.69,6.95h1.37l.21-.3a38,38,0,0,1,3.33-4.29,12.19,12.19,0,0,1,2.55-2.21c.15-.09.32-.16.58-.28a30.49,30.49,0,0,0-4.9,7.08c.24,0,.4,0,.56,0,0,.17,0,.28,0,.28h-.76a27,27,0,0,0-1.7,4.51,3.07,3.07,0,0,0,0,1.09.71.71,0,0,0,.91.46,4.88,4.88,0,0,0,1-.48" transform="translate(-13 -15)"/></g></g></svg>